<svg width="15" height="31" viewBox="0 0 15 31" fill="none" xmlns="http://www.w3.org/2000/svg">
<g clip-path="url(#clip0_4603_91)">
<path d="M9.41933 10.1601V7.47579C9.41933 7.07169 9.44762 6.75419 9.47591 6.55214C9.50419 6.32123 9.58905 6.11918 9.73048 5.91713C9.87191 5.71508 10.0699 5.57076 10.3528 5.48417C10.6356 5.39758 11.0317 5.36872 11.5125 5.36872H14.1431V0H9.92849C7.49586 0 5.7704 0.577281 4.72381 1.76071C3.67722 2.94413 3.13978 4.64711 3.13978 6.95624V10.1601H0V15.5H3.13978V31H9.41933V15.5H13.6057L14.1714 10.1601H9.41933Z" fill="white"/>
</g>
<rect x="0.5" y="0.5" width="13.1714" height="30" stroke="black"/>
<defs>
<clipPath id="clip0_4603_91">
<rect width="14.1714" height="31" fill="white"/>
</clipPath>
</defs>
</svg>
