<svg width="108" height="105" viewBox="0 0 108 105" fill="none" xmlns="http://www.w3.org/2000/svg">
<path d="M19.125 1H88.875C98.9004 1 107 9.08061 107 19.0705V85.9295C107 95.9194 98.9004 104 88.875 104H19.125C9.09959 104 1 95.9194 1 85.9295V19.0705C1 9.08061 9.09959 1 19.125 1Z" fill="#1D1B1B" stroke="white" stroke-width="2"/>
<g clip-path="url(#clip0_4603_38)">
<path d="M41.7116 88.4211C48.3038 88.4211 53.6539 83.1084 53.6539 76.5625V64.704H41.7116C35.1194 64.704 29.7693 70.0166 29.7693 76.5625C29.7693 83.1084 35.1194 88.4211 41.7116 88.4211Z" fill="#0ACF83"/>
<path d="M29.7693 52.8454C29.7693 46.2994 35.1194 40.9868 41.7116 40.9868H53.6539V64.7039H41.7116C35.1194 64.7039 29.7693 59.3913 29.7693 52.8454Z" fill="#A259FF"/>
<path d="M29.7693 29.1283C29.7693 22.5824 35.1194 17.2698 41.7116 17.2698H53.6539V40.9869H41.7116C35.1194 40.9869 29.7693 35.6743 29.7693 29.1283Z" fill="#F24E1E"/>
<path d="M53.6538 17.2698H65.5961C72.1883 17.2698 77.5384 22.5824 77.5384 29.1283C77.5384 35.6743 72.1883 40.9869 65.5961 40.9869H53.6538V17.2698Z" fill="#FF7262"/>
<path d="M77.5384 52.8454C77.5384 59.3913 72.1883 64.7039 65.5961 64.7039C59.004 64.7039 53.6538 59.3913 53.6538 52.8454C53.6538 46.2994 59.004 40.9868 65.5961 40.9868C72.1883 40.9868 77.5384 46.2994 77.5384 52.8454Z" fill="#1ABCFE"/>
</g>
<defs>
<clipPath id="clip0_4603_38">
<rect width="47.7692" height="71.1513" fill="white" transform="translate(29.7693 17.2698)"/>
</clipPath>
</defs>
</svg>
