<svg width="73" height="24" viewBox="0 0 73 24" fill="none" xmlns="http://www.w3.org/2000/svg">
<path d="M18.31 20.5696H5.5C4.12 20.5696 3 19.4496 3 18.0696V7.84961C3 6.46961 4.12 5.34961 5.5 5.34961H18.31C19.69 5.34961 20.81 6.46961 20.81 7.84961V18.0696C20.81 19.4596 19.69 20.5696 18.31 20.5696Z" stroke="#FE7A00" stroke-width="1.2" stroke-miterlimit="10" stroke-linecap="round" stroke-linejoin="round"/>
<path d="M3 9.02002V9.91002C3 11.29 4.12 12.41 5.5 12.41H18.31C19.69 12.41 20.81 11.29 20.81 9.91002V9.02002" stroke="#FE7A00" stroke-width="1.2" stroke-miterlimit="10" stroke-linecap="round" stroke-linejoin="round"/>
<path d="M9.21997 5.35V4.75C9.21997 3.65 10.12 2.75 11.22 2.75H12.58C13.68 2.75 14.58 3.65 14.58 4.75V5.35" stroke="#FE7A00" stroke-width="1.2" stroke-miterlimit="10" stroke-linecap="round" stroke-linejoin="round"/>
<path d="M7.97998 10.71V13.73" stroke="#FE7A00" stroke-width="1.2" stroke-miterlimit="10" stroke-linecap="round" stroke-linejoin="round"/>
<path d="M15.83 10.71V13.73" stroke="#FE7A00" stroke-width="1.2" stroke-miterlimit="10" stroke-linecap="round" stroke-linejoin="round"/>
<path d="M32.6761 7.91193V6.81818H40.3125V7.91193H37.1108V17H35.8778V7.91193H32.6761ZM41.2633 17V9.36364H42.3968V10.517H42.4764C42.6156 10.1392 42.8675 9.83262 43.2321 9.5973C43.5967 9.36198 44.0076 9.24432 44.465 9.24432C44.5512 9.24432 44.6589 9.24597 44.7882 9.24929C44.9174 9.2526 45.0152 9.25758 45.0815 9.2642V10.4574C45.0417 10.4474 44.9506 10.4325 44.8081 10.4126C44.6689 10.3894 44.5214 10.3778 44.3656 10.3778C43.9944 10.3778 43.6629 10.4557 43.3713 10.6115C43.0829 10.764 42.8542 10.9761 42.6852 11.2479C42.5195 11.5163 42.4366 11.8229 42.4366 12.1676V17H41.2633ZM48.7195 17.179C48.2356 17.179 47.7964 17.0878 47.402 16.9055C47.0076 16.7199 46.6944 16.4531 46.4624 16.1051C46.2304 15.7538 46.1143 15.3295 46.1143 14.8324C46.1143 14.3949 46.2005 14.0402 46.3729 13.7685C46.5452 13.4934 46.7756 13.2779 47.0639 13.1222C47.3523 12.9664 47.6705 12.8504 48.0185 12.7741C48.3698 12.6946 48.7228 12.6316 49.0774 12.5852C49.5414 12.5256 49.9176 12.4808 50.206 12.451C50.4976 12.4179 50.7098 12.3632 50.8423 12.2869C50.9782 12.2107 51.0462 12.0781 51.0462 11.8892V11.8494C51.0462 11.3589 50.9119 10.9777 50.6435 10.706C50.3783 10.4342 49.9756 10.2983 49.4354 10.2983C48.8752 10.2983 48.4361 10.4209 48.1179 10.6662C47.7997 10.9115 47.576 11.1733 47.4467 11.4517L46.3331 11.054C46.532 10.59 46.7971 10.2287 47.1286 9.97017C47.4633 9.70833 47.8279 9.52604 48.2223 9.4233C48.62 9.31723 49.0111 9.2642 49.3956 9.2642C49.6409 9.2642 49.9226 9.29403 50.2408 9.35369C50.5623 9.41004 50.8722 9.5277 51.1705 9.70668C51.4721 9.88565 51.7223 10.1558 51.9212 10.517C52.12 10.8783 52.2195 11.3622 52.2195 11.9688V17H51.0462V15.9659H50.9865C50.907 16.1316 50.7744 16.3089 50.5888 16.4979C50.4032 16.6868 50.1563 16.8475 49.848 16.9801C49.5398 17.1127 49.1636 17.179 48.7195 17.179ZM48.8984 16.125C49.3625 16.125 49.7536 16.0339 50.0717 15.8516C50.3932 15.6693 50.6352 15.4339 50.7976 15.1456C50.9633 14.8572 51.0462 14.554 51.0462 14.2358V13.1619C50.9964 13.2216 50.8871 13.2763 50.718 13.326C50.5523 13.3724 50.3601 13.4138 50.1413 13.4503C49.9259 13.4834 49.7154 13.5133 49.5099 13.5398C49.3078 13.563 49.1437 13.5829 49.0178 13.5994C48.7128 13.6392 48.4278 13.7038 48.1626 13.7933C47.9008 13.8795 47.6887 14.0104 47.5263 14.1861C47.3672 14.3584 47.2876 14.5937 47.2876 14.892C47.2876 15.2997 47.4384 15.608 47.7401 15.8168C48.045 16.0223 48.4311 16.125 48.8984 16.125ZM60.3319 9.36364L57.508 17H56.3148L53.4909 9.36364H54.7637L56.8716 15.4489H56.9512L59.0591 9.36364H60.3319ZM64.8088 17.1591C64.073 17.1591 63.4383 16.9967 62.9047 16.6719C62.3743 16.3438 61.965 15.8864 61.6767 15.2997C61.3916 14.7098 61.2491 14.0237 61.2491 13.2415C61.2491 12.4593 61.3916 11.7699 61.6767 11.1733C61.965 10.5734 62.3661 10.1061 62.8798 9.77131C63.3968 9.43324 64.0001 9.2642 64.6895 9.2642C65.0872 9.2642 65.4799 9.33049 65.8677 9.46307C66.2555 9.59564 66.6085 9.81108 66.9267 10.1094C67.2449 10.4044 67.4984 10.7955 67.6873 11.2827C67.8762 11.7699 67.9707 12.3698 67.9707 13.0824V13.5795H62.0843V12.5653H66.7775C66.7775 12.1345 66.6913 11.75 66.519 11.4119C66.35 11.0739 66.108 10.8071 65.7931 10.6115C65.4816 10.416 65.1137 10.3182 64.6895 10.3182C64.2221 10.3182 63.8178 10.4342 63.4764 10.6662C63.1383 10.8949 62.8781 11.1932 62.6958 11.5611C62.5136 11.929 62.4224 12.3234 62.4224 12.7443V13.4205C62.4224 13.9972 62.5218 14.486 62.7207 14.8871C62.9229 15.2848 63.2029 15.5881 63.5609 15.7969C63.9189 16.0024 64.3348 16.1051 64.8088 16.1051C65.117 16.1051 65.3954 16.062 65.644 15.9759C65.8959 15.8864 66.113 15.7538 66.2953 15.5781C66.4776 15.3991 66.6184 15.1771 66.7179 14.9119L67.8514 15.2301C67.7321 15.6146 67.5315 15.9527 67.2498 16.2443C66.9681 16.5327 66.6201 16.758 66.2058 16.9205C65.7915 17.0795 65.3258 17.1591 64.8088 17.1591ZM70.9288 6.81818V17H69.7555V6.81818H70.9288Z" fill="#FE7A00"/>
</svg>
