<svg width="98" height="24" viewBox="0 0 98 24" fill="none" xmlns="http://www.w3.org/2000/svg">
<path d="M33.233 17H39.4574V15.9062H34.4659V12.446H39.0597V11.3523H34.4659V7.91193H39.3778V6.81818H33.233V17ZM44.3246 17.1591C45.7962 17.1591 46.2933 16.2443 46.5518 15.8267H46.6911V17H47.8246V6.81818H46.6513V10.5767H46.5518C46.2933 10.179 45.8359 9.2642 44.3445 9.2642C42.4155 9.2642 41.0831 10.7955 41.0831 13.2017C41.0831 15.6278 42.4155 17.1591 44.3246 17.1591ZM44.4837 16.1051C43.0121 16.1051 42.2564 14.8125 42.2564 13.1818C42.2564 11.571 42.9922 10.3182 44.4837 10.3182C45.9155 10.3182 46.6712 11.4716 46.6712 13.1818C46.6712 14.9119 45.8956 16.1051 44.4837 16.1051ZM54.9489 13.8778C54.9489 15.3097 53.8551 15.9659 52.9801 15.9659C52.0057 15.9659 51.3097 15.25 51.3097 14.1364V9.36364H50.1364V14.2159C50.1364 16.1648 51.1705 17.0994 52.6023 17.0994C53.7557 17.0994 54.5114 16.483 54.8693 15.7074H54.9489V17H56.1222V9.36364H54.9489V13.8778ZM61.3734 17.1591C63.0637 17.1591 64.1774 16.125 64.3762 14.7727H63.2029C62.9842 15.608 62.2882 16.1051 61.3734 16.1051C59.9814 16.1051 59.0865 14.9517 59.0865 13.1818C59.0865 11.4517 60.0012 10.3182 61.3734 10.3182C62.4075 10.3182 63.024 10.9545 63.2029 11.6506H64.3762C64.1774 10.2188 62.9643 9.2642 61.3535 9.2642C59.2853 9.2642 57.9132 10.8949 57.9132 13.2216C57.9132 15.5085 59.2257 17.1591 61.3734 17.1591ZM68.3386 17.179C69.671 17.179 70.367 16.4631 70.6056 15.9659H70.6653V17H71.8386V11.9688C71.8386 9.54261 69.9892 9.2642 69.0147 9.2642C67.8613 9.2642 66.5488 9.66193 65.9522 11.054L67.0659 11.4517C67.3244 10.8949 67.9359 10.2983 69.0545 10.2983C70.1333 10.2983 70.6653 10.87 70.6653 11.8494V11.8892C70.6653 12.456 70.0886 12.4062 68.6966 12.5852C67.2797 12.7692 65.7335 13.0824 65.7335 14.8324C65.7335 16.3239 66.8869 17.179 68.3386 17.179ZM68.5176 16.125C67.5829 16.125 66.9068 15.7074 66.9068 14.892C66.9068 13.9972 67.7221 13.7188 68.6369 13.5994C69.1341 13.5398 70.4664 13.4006 70.6653 13.1619V14.2358C70.6653 15.1903 69.9096 16.125 68.5176 16.125ZM77.3011 9.36364H75.6705V7.53409H74.4972V9.36364H73.3438V10.358H74.4972V15.1307C74.4972 16.4631 75.571 17.0994 76.5653 17.0994C77.0028 17.0994 77.2812 17.0199 77.4403 16.9602L77.2017 15.9062C77.1023 15.9261 76.9432 15.9659 76.6847 15.9659C76.1676 15.9659 75.6705 15.8068 75.6705 14.8125V10.358H77.3011V9.36364ZM79.0661 17H80.2393V9.36364H79.0661V17ZM79.6626 8.09091C80.12 8.09091 80.4979 7.73295 80.4979 7.29545C80.4979 6.85795 80.12 6.5 79.6626 6.5C79.2053 6.5 78.8274 6.85795 78.8274 7.29545C78.8274 7.73295 79.2053 8.09091 79.6626 8.09091ZM85.4906 17.1591C87.5588 17.1591 88.9508 15.5881 88.9508 13.2216C88.9508 10.8352 87.5588 9.2642 85.4906 9.2642C83.4224 9.2642 82.0304 10.8352 82.0304 13.2216C82.0304 15.5881 83.4224 17.1591 85.4906 17.1591ZM85.4906 16.1051C83.9196 16.1051 83.2037 14.7528 83.2037 13.2216C83.2037 11.6903 83.9196 10.3182 85.4906 10.3182C87.0616 10.3182 87.7775 11.6903 87.7775 13.2216C87.7775 14.7528 87.0616 16.1051 85.4906 16.1051ZM91.9151 12.4062C91.9151 11.0739 92.7404 10.3182 93.864 10.3182C94.9528 10.3182 95.614 11.0291 95.614 12.2273V17H96.7873V12.1477C96.7873 10.1989 95.7482 9.2642 94.2021 9.2642C93.0487 9.2642 92.3327 9.78125 91.9748 10.5568H91.8754V9.36364H90.7418V17H91.9151V12.4062Z" fill="#FE7A00"/>
<path d="M20.6399 9.75997L12.3399 12.89C11.9799 13.03 11.5899 13.03 11.2299 12.89L2.92989 9.75997C2.48989 9.59997 2.48989 8.99997 2.91989 8.82997L11.2199 5.69997C11.5799 5.55997 11.9699 5.55997 12.3299 5.69997L20.6299 8.82997C21.0599 8.98997 21.0599 9.59997 20.6399 9.75997Z" stroke="#FE7A00" stroke-width="1.2" stroke-miterlimit="10" stroke-linecap="round" stroke-linejoin="round"/>
<path d="M2.6001 9.29999V14.43" stroke="#FE7A00" stroke-width="1.2" stroke-miterlimit="10" stroke-linecap="round" stroke-linejoin="round"/>
<path d="M5.43994 10.9V17.19C5.43994 18.1 8.27994 18.85 11.7799 18.85C15.2799 18.85 18.1199 18.11 18.1199 17.19V10.9" stroke="#FE7A00" stroke-width="1.2" stroke-miterlimit="10" stroke-linecap="round" stroke-linejoin="round"/>
</svg>
