<svg width="91" height="24" viewBox="0 0 91 24" fill="none" xmlns="http://www.w3.org/2000/svg">
<path d="M34.8011 9.36364H35.9943C35.9396 7.82741 34.5227 6.67898 32.554 6.67898C30.6051 6.67898 29.0739 7.8125 29.0739 9.52273C29.0739 10.8949 30.0682 11.7102 31.6591 12.1676L32.9119 12.5256C33.9858 12.8239 34.9403 13.2017 34.9403 14.2159C34.9403 15.3295 33.8665 16.0653 32.4545 16.0653C31.2415 16.0653 30.1676 15.5284 30.0682 14.375H28.7955C28.9148 16.0455 30.267 17.179 32.4545 17.179C34.8011 17.179 36.1335 15.8864 36.1335 14.2358C36.1335 12.3267 34.3239 11.7102 33.2699 11.4318L32.2358 11.1534C31.4801 10.9545 30.267 10.5568 30.267 9.46307C30.267 8.48864 31.1619 7.77273 32.5142 7.77273C33.7472 7.77273 34.6818 8.35938 34.8011 9.36364ZM39.1749 12.4062C39.1749 11.0739 40.025 10.3182 41.1834 10.3182C42.2871 10.3182 42.9533 11.0142 42.9533 12.2273V17H44.1266V12.1477C44.1266 10.1839 43.0826 9.2642 41.5215 9.2642C40.3184 9.2642 39.6323 9.76633 39.2743 10.5568H39.1749V6.81818H38.0016V17H39.1749V12.4062ZM49.3754 17.1591C51.4435 17.1591 52.8356 15.5881 52.8356 13.2216C52.8356 10.8352 51.4435 9.2642 49.3754 9.2642C47.3072 9.2642 45.9151 10.8352 45.9151 13.2216C45.9151 15.5881 47.3072 17.1591 49.3754 17.1591ZM49.3754 16.1051C47.8043 16.1051 47.0884 14.7528 47.0884 13.2216C47.0884 11.6903 47.8043 10.3182 49.3754 10.3182C50.9464 10.3182 51.6623 11.6903 51.6623 13.2216C51.6623 14.7528 50.9464 16.1051 49.3754 16.1051ZM54.6266 19.8636H55.7999V15.8267H55.8993C56.1578 16.2443 56.655 17.1591 58.1266 17.1591C60.0357 17.1591 61.3681 15.6278 61.3681 13.2017C61.3681 10.7955 60.0357 9.2642 58.1067 9.2642C56.6152 9.2642 56.1578 10.179 55.8993 10.5767H55.7601V9.36364H54.6266V19.8636ZM55.78 13.1818C55.78 11.4716 56.5357 10.3182 57.9675 10.3182C59.459 10.3182 60.1948 11.571 60.1948 13.1818C60.1948 14.8125 59.4391 16.1051 57.9675 16.1051C56.5556 16.1051 55.78 14.9119 55.78 13.1818ZM63.1578 19.8636H64.3311V15.8267H64.4306C64.6891 16.2443 65.1863 17.1591 66.6578 17.1591C68.5669 17.1591 69.8993 15.6278 69.8993 13.2017C69.8993 10.7955 68.5669 9.2642 66.638 9.2642C65.1465 9.2642 64.6891 10.179 64.4306 10.5767H64.2914V9.36364H63.1578V19.8636ZM64.3113 13.1818C64.3113 11.4716 65.0669 10.3182 66.4988 10.3182C67.9902 10.3182 68.726 11.571 68.726 13.1818C68.726 14.8125 67.9703 16.1051 66.4988 16.1051C65.0868 16.1051 64.3113 14.9119 64.3113 13.1818ZM71.6891 17H72.8624V9.36364H71.6891V17ZM72.2857 8.09091C72.7431 8.09091 73.1209 7.73295 73.1209 7.29545C73.1209 6.85795 72.7431 6.5 72.2857 6.5C71.8283 6.5 71.4505 6.85795 71.4505 7.29545C71.4505 7.73295 71.8283 8.09091 72.2857 8.09091ZM76.1847 12.4062C76.1847 11.0739 77.0099 10.3182 78.1335 10.3182C79.2223 10.3182 79.8835 11.0291 79.8835 12.2273V17H81.0568V12.1477C81.0568 10.1989 80.0178 9.2642 78.4716 9.2642C77.3182 9.2642 76.6023 9.78125 76.2443 10.5568H76.1449V9.36364H75.0114V17H76.1847V12.4062ZM86.2832 20.0227C88.1127 20.0227 89.5843 19.1875 89.5843 17.2188V9.36364H88.4508V10.5767H88.3315C88.073 10.179 87.5957 9.2642 86.1042 9.2642C84.1752 9.2642 82.8429 10.7955 82.8429 13.142C82.8429 15.5284 84.2349 16.8807 86.0843 16.8807C87.5758 16.8807 88.0531 16.0057 88.3116 15.5881H88.411V17.1392C88.411 18.4119 87.5162 18.9886 86.2832 18.9886C84.8961 18.9886 84.4089 18.2578 84.0957 17.8352L83.161 18.4915C83.6383 19.2919 84.5779 20.0227 86.2832 20.0227ZM86.2434 15.8267C84.7718 15.8267 84.0162 14.7131 84.0162 13.1222C84.0162 11.571 84.752 10.3182 86.2434 10.3182C87.6752 10.3182 88.4309 11.4716 88.4309 13.1222C88.4309 14.8125 87.6554 15.8267 86.2434 15.8267Z" fill="#FE7A00"/>
<path d="M15.1249 19.22H5.41659C4.44992 19.22 3.69159 18.24 3.74992 17.09L4.37492 5.44C4.39992 4.91 4.76659 4.5 5.20825 4.5H15.3333C15.7749 4.5 16.1333 4.91 16.1666 5.44L16.7916 17.09C16.8499 18.24 16.0916 19.22 15.1249 19.22Z" stroke="#FE7A00" stroke-width="1.2" stroke-miterlimit="10" stroke-linecap="round" stroke-linejoin="round"/>
<path d="M12.4668 6.71997V8.62997C12.4668 9.69997 11.7418 10.56 10.8585 10.56H9.69183C8.80016 10.56 8.0835 9.68997 8.0835 8.62997V6.71997" stroke="#FE7A00" stroke-width="1.2" stroke-miterlimit="10" stroke-linecap="round" stroke-linejoin="round"/>
</svg>
