<svg width="32" height="31" viewBox="0 0 32 31" fill="none" xmlns="http://www.w3.org/2000/svg">
<g clip-path="url(#clip0_4603_94)">
<path d="M22.6189 0H8.7239C4.00053 0 0.171387 3.82914 0.171387 8.55251V22.4475C0.171387 27.1709 4.00053 31 8.7239 31H22.6189C27.3422 31 31.1714 27.1709 31.1714 22.4475V8.55251C31.1714 3.82914 27.3422 0 22.6189 0ZM28.4199 22.4475C28.4199 25.6575 25.806 28.2485 22.6189 28.2485H8.7239C5.51384 28.2485 2.92287 25.6346 2.92287 22.4475V8.55251C2.92287 5.36538 5.53677 2.75148 8.7239 2.75148H22.6189C25.8289 2.75148 28.4199 5.36538 28.4199 8.55251V22.4475Z" fill="white"/>
<path d="M15.6714 7.52063C11.269 7.52063 7.66919 11.0976 7.66919 15.4999C7.66919 19.9023 11.2461 23.5021 15.6714 23.5021C20.0738 23.5021 23.6736 19.9252 23.6736 15.4999C23.6736 11.0976 20.0738 7.52063 15.6714 7.52063ZM15.6714 20.7507C12.7824 20.7507 10.4207 18.4119 10.4207 15.5229C10.4436 12.6109 12.7824 10.2721 15.6714 10.2721C18.5605 10.2721 20.9222 12.6109 20.9222 15.4999C20.9222 18.389 18.5605 20.7507 15.6714 20.7507Z" fill="white"/>
<path d="M23.9946 5.18182C23.4672 5.18182 22.9398 5.38818 22.573 5.77798C22.2061 6.14484 21.9768 6.67221 21.9768 7.19958C21.9768 7.72694 22.1832 8.25431 22.573 8.62117C22.9398 8.98804 23.4672 9.21733 23.9946 9.21733C24.5219 9.21733 25.0493 9.01097 25.4162 8.62117C25.783 8.25431 26.0123 7.72694 26.0123 7.19958C26.0123 6.67221 25.8059 6.14484 25.4162 5.77798C25.0493 5.38818 24.5449 5.18182 23.9946 5.18182Z" fill="white"/>
</g>
<rect x="0.671387" y="0.5" width="30" height="30" stroke="black"/>
<defs>
<clipPath id="clip0_4603_94">
<rect x="0.171387" width="31" height="31" fill="white"/>
</clipPath>
</defs>
</svg>
