<svg width="110" height="107" viewBox="0 0 110 107" fill="none" xmlns="http://www.w3.org/2000/svg">
<mask id="path-1-inside-1_4646_15" fill="white">
<path d="M19.4792 0H90.5208C101.292 0 110 8.68804 110 19.4338V87.5662C110 98.312 101.292 107 90.5208 107H19.4792C8.70833 107 0 98.312 0 87.5662V19.4338C0 8.68804 8.70833 0 19.4792 0Z"/>
<path d="M24.75 75.0372V27.9846C24.75 27.6645 24.8875 27.4816 25.2083 27.4816C25.9875 27.4816 26.7208 27.4816 27.775 27.4359C28.875 27.3902 30.0208 27.3902 31.2583 27.3444C32.4958 27.2987 33.825 27.2987 35.2458 27.253C36.6667 27.2073 38.0417 27.2073 39.4167 27.2073C43.175 27.2073 46.2917 27.6645 48.8583 28.6248C51.15 29.4021 53.2583 30.6825 55 32.3744C56.4667 33.8376 57.6125 35.6209 58.3458 37.5872C59.0333 39.5077 59.4 41.4739 59.4 43.5316C59.4 47.4641 58.4833 50.7107 56.65 53.2714C54.8167 55.8321 52.25 57.7526 49.2708 58.85C46.1542 59.9932 42.7167 60.4047 38.9583 60.4047C37.8583 60.4047 37.125 60.4047 36.6667 60.359C36.2083 60.3133 35.5667 60.3133 34.6958 60.3133V74.9915C34.7417 75.3115 34.5125 75.5859 34.1917 75.6316C34.1458 75.6316 34.1 75.6316 34.0083 75.6316H25.3C24.9333 75.6316 24.75 75.4487 24.75 75.0372ZM34.7417 36.3068V51.6709C35.3833 51.7167 35.9792 51.7624 36.5292 51.7624H38.9583C40.7458 51.7624 42.5333 51.488 44.2292 50.9393C45.6958 50.5278 46.9792 49.659 47.9875 48.5158C48.95 47.3727 49.4083 45.818 49.4083 43.806C49.4542 42.3885 49.0875 40.9709 48.3542 39.7363C47.575 38.5474 46.475 37.6329 45.1458 37.1299C43.45 36.444 41.6167 36.1697 39.7375 36.2154C38.5458 36.2154 37.4917 36.2154 36.6208 36.2611C35.7042 36.2154 35.0625 36.2611 34.7417 36.3068Z"/>
<path d="M88 48.8816C86.625 48.15 85.1583 47.647 83.6 47.3269C81.9042 46.9611 80.2083 46.7325 78.4667 46.7325C77.55 46.6867 76.5875 46.8239 75.7167 47.0526C75.1208 47.1897 74.6167 47.5098 74.2958 47.9671C74.0667 48.3329 73.9292 48.7902 73.9292 49.2017C73.9292 49.6132 74.1125 50.0248 74.3875 50.3906C74.8 50.8936 75.35 51.3051 75.9458 51.6252C77 52.1739 78.1 52.6769 79.2 53.1342C81.675 53.9573 84.0583 55.1004 86.2583 56.4722C87.7708 57.4325 89.0083 58.7128 89.8792 60.2675C90.6125 61.7308 90.9792 63.3312 90.9333 64.9773C90.9792 67.1265 90.3375 69.2756 89.1458 71.059C87.8625 72.888 86.075 74.3055 84.0125 75.1286C81.7667 76.0889 79.0167 76.5919 75.7167 76.5919C73.6083 76.5919 71.5458 76.409 69.4833 75.9974C67.8792 75.7231 66.275 75.2201 64.8083 74.5342C64.4875 74.3513 64.2583 74.0312 64.3042 73.6654V65.709C64.3042 65.5718 64.35 65.3889 64.4875 65.2974C64.625 65.206 64.7625 65.2517 64.9 65.3432C66.6875 66.3949 68.5667 67.1265 70.5833 67.5838C72.325 68.041 74.1583 68.2697 75.9917 68.2697C77.7333 68.2697 78.9708 68.041 79.7958 67.6295C80.5292 67.3094 81.0333 66.532 81.0333 65.709C81.0333 65.0688 80.6667 64.4743 79.9333 63.8799C79.2 63.2855 77.6875 62.5996 75.4417 61.7308C73.1042 60.9077 70.95 59.8102 68.9333 58.4385C67.5125 57.4325 66.3208 56.1064 65.45 54.5517C64.7167 53.0885 64.35 51.488 64.3958 49.8876C64.3958 47.9214 64.9458 46.0466 65.9542 44.3547C67.1 42.5256 68.7958 41.0624 70.7667 40.1479C72.9208 39.0504 75.625 38.5474 78.8792 38.5474C80.7583 38.5474 82.6833 38.6846 84.5625 38.959C85.9375 39.1419 87.2667 39.5077 88.5042 40.0107C88.6875 40.0564 88.8708 40.2393 88.9625 40.4222C89.0083 40.6051 89.0542 40.788 89.0542 40.9709V48.4244C89.0542 48.6073 88.9625 48.7902 88.825 48.8816C88.4125 48.9731 88.1833 48.9731 88 48.8816Z"/>
</mask>
<path d="M19.4792 0H90.5208C101.292 0 110 8.68804 110 19.4338V87.5662C110 98.312 101.292 107 90.5208 107H19.4792C8.70833 107 0 98.312 0 87.5662V19.4338C0 8.68804 8.70833 0 19.4792 0Z" fill="#001E36"/>
<path d="M24.75 75.0372V27.9846C24.75 27.6645 24.8875 27.4816 25.2083 27.4816C25.9875 27.4816 26.7208 27.4816 27.775 27.4359C28.875 27.3902 30.0208 27.3902 31.2583 27.3444C32.4958 27.2987 33.825 27.2987 35.2458 27.253C36.6667 27.2073 38.0417 27.2073 39.4167 27.2073C43.175 27.2073 46.2917 27.6645 48.8583 28.6248C51.15 29.4021 53.2583 30.6825 55 32.3744C56.4667 33.8376 57.6125 35.6209 58.3458 37.5872C59.0333 39.5077 59.4 41.4739 59.4 43.5316C59.4 47.4641 58.4833 50.7107 56.65 53.2714C54.8167 55.8321 52.25 57.7526 49.2708 58.85C46.1542 59.9932 42.7167 60.4047 38.9583 60.4047C37.8583 60.4047 37.125 60.4047 36.6667 60.359C36.2083 60.3133 35.5667 60.3133 34.6958 60.3133V74.9915C34.7417 75.3115 34.5125 75.5859 34.1917 75.6316C34.1458 75.6316 34.1 75.6316 34.0083 75.6316H25.3C24.9333 75.6316 24.75 75.4487 24.75 75.0372ZM34.7417 36.3068V51.6709C35.3833 51.7167 35.9792 51.7624 36.5292 51.7624H38.9583C40.7458 51.7624 42.5333 51.488 44.2292 50.9393C45.6958 50.5278 46.9792 49.659 47.9875 48.5158C48.95 47.3727 49.4083 45.818 49.4083 43.806C49.4542 42.3885 49.0875 40.9709 48.3542 39.7363C47.575 38.5474 46.475 37.6329 45.1458 37.1299C43.45 36.444 41.6167 36.1697 39.7375 36.2154C38.5458 36.2154 37.4917 36.2154 36.6208 36.2611C35.7042 36.2154 35.0625 36.2611 34.7417 36.3068Z" fill="#31A8FF"/>
<path d="M88 48.8816C86.625 48.15 85.1583 47.647 83.6 47.3269C81.9042 46.9611 80.2083 46.7325 78.4667 46.7325C77.55 46.6867 76.5875 46.8239 75.7167 47.0526C75.1208 47.1897 74.6167 47.5098 74.2958 47.9671C74.0667 48.3329 73.9292 48.7902 73.9292 49.2017C73.9292 49.6132 74.1125 50.0248 74.3875 50.3906C74.8 50.8936 75.35 51.3051 75.9458 51.6252C77 52.1739 78.1 52.6769 79.2 53.1342C81.675 53.9573 84.0583 55.1004 86.2583 56.4722C87.7708 57.4325 89.0083 58.7128 89.8792 60.2675C90.6125 61.7308 90.9792 63.3312 90.9333 64.9773C90.9792 67.1265 90.3375 69.2756 89.1458 71.059C87.8625 72.888 86.075 74.3055 84.0125 75.1286C81.7667 76.0889 79.0167 76.5919 75.7167 76.5919C73.6083 76.5919 71.5458 76.409 69.4833 75.9974C67.8792 75.7231 66.275 75.2201 64.8083 74.5342C64.4875 74.3513 64.2583 74.0312 64.3042 73.6654V65.709C64.3042 65.5718 64.35 65.3889 64.4875 65.2974C64.625 65.206 64.7625 65.2517 64.9 65.3432C66.6875 66.3949 68.5667 67.1265 70.5833 67.5838C72.325 68.041 74.1583 68.2697 75.9917 68.2697C77.7333 68.2697 78.9708 68.041 79.7958 67.6295C80.5292 67.3094 81.0333 66.532 81.0333 65.709C81.0333 65.0688 80.6667 64.4743 79.9333 63.8799C79.2 63.2855 77.6875 62.5996 75.4417 61.7308C73.1042 60.9077 70.95 59.8102 68.9333 58.4385C67.5125 57.4325 66.3208 56.1064 65.45 54.5517C64.7167 53.0885 64.35 51.488 64.3958 49.8876C64.3958 47.9214 64.9458 46.0466 65.9542 44.3547C67.1 42.5256 68.7958 41.0624 70.7667 40.1479C72.9208 39.0504 75.625 38.5474 78.8792 38.5474C80.7583 38.5474 82.6833 38.6846 84.5625 38.959C85.9375 39.1419 87.2667 39.5077 88.5042 40.0107C88.6875 40.0564 88.8708 40.2393 88.9625 40.4222C89.0083 40.6051 89.0542 40.788 89.0542 40.9709V48.4244C89.0542 48.6073 88.9625 48.7902 88.825 48.8816C88.4125 48.9731 88.1833 48.9731 88 48.8816Z" fill="#31A8FF"/>
<path d="M27.775 27.4359L27.6919 25.4376L27.6883 25.4378L27.775 27.4359ZM48.8583 28.6248L48.1575 30.498L48.1865 30.5088L48.2159 30.5188L48.8583 28.6248ZM55 32.3744L56.4126 30.9585L56.4031 30.9491L56.3936 30.9398L55 32.3744ZM58.3458 37.5872L60.2288 36.9131L60.2244 36.9007L60.2197 36.8883L58.3458 37.5872ZM49.2708 58.85L49.9595 60.7277L49.9622 60.7267L49.2708 58.85ZM34.6958 60.3133V58.3133H32.6958V60.3133H34.6958ZM34.6958 74.9915H32.6958V75.1339L32.716 75.2749L34.6958 74.9915ZM34.1917 75.6316V77.6316H34.3335L34.4739 77.6116L34.1917 75.6316ZM34.7417 36.3068L34.4595 34.3269L32.7417 34.5717V36.3068H34.7417ZM34.7417 51.6709H32.7417V53.5335L34.5995 53.6659L34.7417 51.6709ZM44.2292 50.9393L43.6888 49.0137L43.6509 49.0243L43.6135 49.0365L44.2292 50.9393ZM47.9875 48.5158L49.4874 49.8388L49.5026 49.8216L49.5174 49.804L47.9875 48.5158ZM49.4083 43.806L47.4094 43.7414L47.4083 43.7737V43.806H49.4083ZM48.3542 39.7363L50.0737 38.715L50.0511 38.677L50.0269 38.64L48.3542 39.7363ZM45.1458 37.1299L44.3959 38.984L44.4169 38.9925L44.438 39.0005L45.1458 37.1299ZM39.7375 36.2154V38.2154H39.7618L39.7861 38.2148L39.7375 36.2154ZM36.6208 36.2611L36.5212 38.2586L36.6235 38.2637L36.7257 38.2584L36.6208 36.2611ZM88 48.8816L87.0605 50.6472L87.0837 50.6596L87.1072 50.6713L88 48.8816ZM83.6 47.3269L83.1783 49.2819L83.1879 49.284L83.1976 49.286L83.6 47.3269ZM78.4667 46.7325L78.367 48.73L78.4168 48.7325H78.4667V46.7325ZM75.7167 47.0526L76.1654 49.0016L76.1951 48.9947L76.2245 48.987L75.7167 47.0526ZM74.2958 47.9671L72.6586 46.8184L72.6287 46.8611L72.601 46.9053L74.2958 47.9671ZM74.3875 50.3906L72.7888 51.5924L72.8142 51.6262L72.841 51.6588L74.3875 50.3906ZM75.9458 51.6252L74.9993 53.3871L75.0108 53.3932L75.0224 53.3993L75.9458 51.6252ZM79.2 53.1342L78.4323 54.981L78.4997 55.009L78.5689 55.032L79.2 53.1342ZM86.2583 56.4722L87.3303 54.7838L87.3234 54.7794L87.3166 54.7751L86.2583 56.4722ZM89.8792 60.2675L91.6672 59.3714L91.6466 59.3303L91.6241 59.2901L89.8792 60.2675ZM90.9333 64.9773L88.9341 64.9217L88.9327 64.9708L88.9338 65.02L90.9333 64.9773ZM89.1458 71.059L90.783 72.2077L90.7961 72.1891L90.8087 72.1702L89.1458 71.059ZM84.0125 75.1286L83.2712 73.2711L83.2486 73.2801L83.2262 73.2897L84.0125 75.1286ZM69.4833 75.9974L69.8747 74.0361L69.8477 74.0307L69.8205 74.0261L69.4833 75.9974ZM64.8083 74.5342L63.8178 76.2717L63.8879 76.3117L63.9611 76.3459L64.8083 74.5342ZM64.3042 73.6654L66.2887 73.914L66.3042 73.7902V73.6654H64.3042ZM64.9 65.3432L63.7924 67.0084L63.8383 67.039L63.8858 67.0669L64.9 65.3432ZM70.5833 67.5838L71.0912 65.6493L71.0585 65.6407L71.0256 65.6333L70.5833 67.5838ZM79.7958 67.6295L78.9958 65.7965L78.9489 65.8169L78.9031 65.8398L79.7958 67.6295ZM75.4417 61.7308L76.1633 59.8655L76.1348 59.8544L76.1059 59.8443L75.4417 61.7308ZM68.9333 58.4385L67.7776 60.0707L67.7929 60.0816L67.8084 60.0921L68.9333 58.4385ZM65.45 54.5517L63.662 55.4478L63.6826 55.4889L63.7051 55.5291L65.45 54.5517ZM64.3958 49.8876L66.395 49.9449L66.3958 49.9162V49.8876H64.3958ZM65.9542 44.3547L64.2593 43.2929L64.2475 43.3117L64.2361 43.3308L65.9542 44.3547ZM70.7667 40.1479L71.6085 41.962L71.6418 41.9466L71.6745 41.9299L70.7667 40.1479ZM84.5625 38.959L84.2736 40.938L84.2862 40.9398L84.2988 40.9415L84.5625 38.959ZM88.5042 40.0107L87.7511 41.8635L87.8825 41.9169L88.0202 41.9512L88.5042 40.0107ZM88.9625 40.4222L90.9025 39.9361L90.8491 39.7227L90.7505 39.5261L88.9625 40.4222ZM88.825 48.8816L89.2579 50.8342L89.622 50.7535L89.9326 50.5469L88.825 48.8816ZM19.4792 2H90.5208V-2H19.4792V2ZM90.5208 2C100.192 2 108 9.797 108 19.4338H112C112 7.57907 102.392 -2 90.5208 -2V2ZM108 19.4338V87.5662H112V19.4338H108ZM108 87.5662C108 97.203 100.192 105 90.5208 105V109C102.392 109 112 99.4209 112 87.5662H108ZM90.5208 105H19.4792V109H90.5208V105ZM19.4792 105C9.8085 105 2 97.203 2 87.5662H-2C-2 99.4209 7.60817 109 19.4792 109V105ZM2 87.5662V19.4338H-2V87.5662H2ZM2 19.4338C2 9.797 9.8085 2 19.4792 2V-2C7.60817 -2 -2 7.57907 -2 19.4338H2ZM26.75 75.0372V27.9846H22.75V75.0372H26.75ZM26.75 27.9846C26.75 28.0644 26.7394 28.498 26.3687 28.9247C25.9506 29.406 25.4298 29.4816 25.2083 29.4816V25.4816C24.6661 25.4816 23.916 25.6487 23.349 26.3015C22.8293 26.8997 22.75 27.5848 22.75 27.9846H26.75ZM25.2083 29.4816C25.9918 29.4816 26.7615 29.4817 27.8617 29.434L27.6883 25.4378C26.6801 25.4815 25.9832 25.4816 25.2083 25.4816V29.4816ZM27.8581 29.4342C28.3829 29.4124 28.923 29.4013 29.5046 29.3898C30.0799 29.3784 30.6932 29.3667 31.3322 29.3431L31.1845 25.3458C30.5859 25.3679 30.0076 25.3791 29.4256 25.3906C28.8499 25.4019 28.2671 25.4137 27.6919 25.4376L27.8581 29.4342ZM31.3322 29.3431C31.9281 29.3211 32.5504 29.3099 33.2177 29.2984C33.8792 29.2871 34.5821 29.2754 35.3102 29.252L35.1815 25.254C34.4888 25.2763 33.8167 25.2875 33.1489 25.299C32.4871 25.3104 31.8261 25.3221 31.1845 25.3458L31.3322 29.3431ZM35.3102 29.252C36.6938 29.2074 38.0371 29.2073 39.4167 29.2073V25.2073C38.0462 25.2073 36.6396 25.2071 35.1815 25.254L35.3102 29.252ZM39.4167 29.2073C43.0263 29.2073 45.8865 29.6483 48.1575 30.498L49.5591 26.7516C46.6968 25.6807 43.3237 25.2073 39.4167 25.2073V29.2073ZM48.2159 30.5188C50.2299 31.202 52.0807 32.3269 53.6064 33.8089L56.3936 30.9398C54.4359 29.0381 52.0701 27.6023 49.5008 26.7308L48.2159 30.5188ZM53.5874 33.7902C54.8486 35.0484 55.8381 36.5866 56.4719 38.2861L60.2197 36.8883C59.3869 34.6553 58.0847 32.6268 56.4126 30.9585L53.5874 33.7902ZM56.4628 38.2612C57.0783 39.9806 57.4 41.7192 57.4 43.5316H61.4C61.4 41.2287 60.9883 39.0348 60.2288 36.9131L56.4628 38.2612ZM57.4 43.5316C57.4 47.1514 56.5594 49.9623 55.0238 52.1071L58.2762 54.4356C60.4073 51.4591 61.4 47.7768 61.4 43.5316H57.4ZM55.0238 52.1071C53.432 54.3305 51.1963 56.0093 48.5795 56.9733L49.9622 60.7267C53.3037 59.4958 56.2013 57.3336 58.2762 54.4356L55.0238 52.1071ZM48.5821 56.9723C45.7637 58.0061 42.5817 58.4047 38.9583 58.4047V62.4047C42.8516 62.4047 46.5446 61.9802 49.9595 60.7277L48.5821 56.9723ZM38.9583 58.4047C37.8002 58.4047 37.1976 58.402 36.8652 58.3689L36.4681 62.3491C37.0524 62.4074 37.9165 62.4047 38.9583 62.4047V58.4047ZM36.8652 58.3689C36.283 58.3108 35.5191 58.3133 34.6958 58.3133V62.3133C35.6142 62.3133 36.1336 62.3157 36.4681 62.3491L36.8652 58.3689ZM32.6958 60.3133V74.9915H36.6958V60.3133H32.6958ZM32.716 75.2749C32.5882 74.3822 33.2591 73.7443 33.9095 73.6516L34.4739 77.6116C35.7658 77.4275 36.8951 76.2409 36.6756 74.708L32.716 75.2749ZM34.1917 73.6316C34.1916 73.6316 34.1915 73.6316 34.1914 73.6316C34.1913 73.6316 34.1912 73.6316 34.1911 73.6316C34.191 73.6316 34.1909 73.6316 34.1909 73.6316C34.1908 73.6316 34.1907 73.6316 34.1906 73.6316C34.1905 73.6316 34.1904 73.6316 34.1903 73.6316C34.1902 73.6316 34.1901 73.6316 34.1901 73.6316C34.19 73.6316 34.1899 73.6316 34.1898 73.6316C34.1897 73.6316 34.1896 73.6316 34.1895 73.6316C34.1894 73.6316 34.1893 73.6316 34.1892 73.6316C34.1892 73.6316 34.1891 73.6316 34.189 73.6316C34.1889 73.6316 34.1888 73.6316 34.1887 73.6316C34.1886 73.6316 34.1885 73.6316 34.1884 73.6316C34.1884 73.6316 34.1883 73.6316 34.1882 73.6316C34.1881 73.6316 34.188 73.6316 34.1879 73.6316C34.1878 73.6316 34.1877 73.6316 34.1876 73.6316C34.1875 73.6316 34.1875 73.6316 34.1874 73.6316C34.1873 73.6316 34.1872 73.6316 34.1871 73.6316C34.187 73.6316 34.1869 73.6316 34.1868 73.6316C34.1867 73.6316 34.1866 73.6316 34.1866 73.6316C34.1865 73.6316 34.1864 73.6316 34.1863 73.6316C34.1862 73.6316 34.1861 73.6316 34.186 73.6316C34.1859 73.6316 34.1858 73.6316 34.1857 73.6316C34.1857 73.6316 34.1856 73.6316 34.1855 73.6316C34.1854 73.6316 34.1853 73.6316 34.1852 73.6316C34.1851 73.6316 34.185 73.6316 34.1849 73.6316C34.1849 73.6316 34.1848 73.6316 34.1847 73.6316C34.1846 73.6316 34.1845 73.6316 34.1844 73.6316C34.1843 73.6316 34.1842 73.6316 34.1841 73.6316C34.184 73.6316 34.184 73.6316 34.1839 73.6316C34.1838 73.6316 34.1837 73.6316 34.1836 73.6316C34.1835 73.6316 34.1834 73.6316 34.1833 73.6316C34.1832 73.6316 34.1831 73.6316 34.1831 73.6316C34.183 73.6316 34.1829 73.6316 34.1828 73.6316C34.1827 73.6316 34.1826 73.6316 34.1825 73.6316C34.1824 73.6316 34.1823 73.6316 34.1822 73.6316C34.1822 73.6316 34.1821 73.6316 34.182 73.6316C34.1819 73.6316 34.1818 73.6316 34.1817 73.6316C34.1816 73.6316 34.1815 73.6316 34.1814 73.6316C34.1813 73.6316 34.1813 73.6316 34.1812 73.6316C34.1811 73.6316 34.181 73.6316 34.1809 73.6316C34.1808 73.6316 34.1807 73.6316 34.1806 73.6316C34.1805 73.6316 34.1804 73.6316 34.1804 73.6316C34.1803 73.6316 34.1802 73.6316 34.1801 73.6316C34.18 73.6316 34.1799 73.6316 34.1798 73.6316C34.1797 73.6316 34.1796 73.6316 34.1795 73.6316C34.1795 73.6316 34.1794 73.6316 34.1793 73.6316C34.1792 73.6316 34.1791 73.6316 34.179 73.6316C34.1789 73.6316 34.1788 73.6316 34.1787 73.6316C34.1786 73.6316 34.1786 73.6316 34.1785 73.6316C34.1784 73.6316 34.1783 73.6316 34.1782 73.6316C34.1781 73.6316 34.178 73.6316 34.1779 73.6316C34.1778 73.6316 34.1777 73.6316 34.1777 73.6316C34.1776 73.6316 34.1775 73.6316 34.1774 73.6316C34.1773 73.6316 34.1772 73.6316 34.1771 73.6316C34.177 73.6316 34.1769 73.6316 34.1768 73.6316C34.1767 73.6316 34.1767 73.6316 34.1766 73.6316C34.1765 73.6316 34.1764 73.6316 34.1763 73.6316C34.1762 73.6316 34.1761 73.6316 34.176 73.6316C34.1759 73.6316 34.1758 73.6316 34.1757 73.6316C34.1757 73.6316 34.1756 73.6316 34.1755 73.6316C34.1754 73.6316 34.1753 73.6316 34.1752 73.6316C34.1751 73.6316 34.175 73.6316 34.1749 73.6316C34.1748 73.6316 34.1747 73.6316 34.1747 73.6316C34.1746 73.6316 34.1745 73.6316 34.1744 73.6316C34.1743 73.6316 34.1742 73.6316 34.1741 73.6316C34.174 73.6316 34.1739 73.6316 34.1738 73.6316C34.1737 73.6316 34.1737 73.6316 34.1736 73.6316C34.1735 73.6316 34.1734 73.6316 34.1733 73.6316C34.1732 73.6316 34.1731 73.6316 34.173 73.6316C34.1729 73.6316 34.1728 73.6316 34.1727 73.6316C34.1727 73.6316 34.1726 73.6316 34.1725 73.6316C34.1724 73.6316 34.1723 73.6316 34.1722 73.6316C34.1721 73.6316 34.172 73.6316 34.1719 73.6316C34.1718 73.6316 34.1717 73.6316 34.1716 73.6316C34.1716 73.6316 34.1715 73.6316 34.1714 73.6316C34.1713 73.6316 34.1712 73.6316 34.1711 73.6316C34.171 73.6316 34.1709 73.6316 34.1708 73.6316C34.1707 73.6316 34.1706 73.6316 34.1706 73.6316C34.1705 73.6316 34.1704 73.6316 34.1703 73.6316C34.1702 73.6316 34.1701 73.6316 34.17 73.6316C34.1699 73.6316 34.1698 73.6316 34.1697 73.6316C34.1696 73.6316 34.1695 73.6316 34.1695 73.6316C34.1694 73.6316 34.1693 73.6316 34.1692 73.6316C34.1691 73.6316 34.169 73.6316 34.1689 73.6316C34.1688 73.6316 34.1687 73.6316 34.1686 73.6316C34.1685 73.6316 34.1684 73.6316 34.1684 73.6316C34.1683 73.6316 34.1682 73.6316 34.1681 73.6316C34.168 73.6316 34.1679 73.6316 34.1678 73.6316C34.1677 73.6316 34.1676 73.6316 34.1675 73.6316C34.1674 73.6316 34.1673 73.6316 34.1672 73.6316C34.1672 73.6316 34.1671 73.6316 34.167 73.6316C34.1669 73.6316 34.1668 73.6316 34.1667 73.6316C34.1666 73.6316 34.1665 73.6316 34.1664 73.6316C34.1663 73.6316 34.1662 73.6316 34.1661 73.6316C34.166 73.6316 34.1659 73.6316 34.1659 73.6316C34.1658 73.6316 34.1657 73.6316 34.1656 73.6316C34.1655 73.6316 34.1654 73.6316 34.1653 73.6316C34.1652 73.6316 34.1651 73.6316 34.165 73.6316C34.1649 73.6316 34.1648 73.6316 34.1647 73.6316C34.1646 73.6316 34.1646 73.6316 34.1645 73.6316C34.1644 73.6316 34.1643 73.6316 34.1642 73.6316C34.1641 73.6316 34.164 73.6316 34.1639 73.6316C34.1638 73.6316 34.1637 73.6316 34.1636 73.6316C34.1635 73.6316 34.1634 73.6316 34.1633 73.6316C34.1633 73.6316 34.1632 73.6316 34.1631 73.6316C34.163 73.6316 34.1629 73.6316 34.1628 73.6316C34.1627 73.6316 34.1626 73.6316 34.1625 73.6316C34.1624 73.6316 34.1623 73.6316 34.1622 73.6316C34.1621 73.6316 34.162 73.6316 34.1619 73.6316C34.1619 73.6316 34.1618 73.6316 34.1617 73.6316C34.1616 73.6316 34.1615 73.6316 34.1614 73.6316C34.1613 73.6316 34.1612 73.6316 34.1611 73.6316C34.161 73.6316 34.1609 73.6316 34.1608 73.6316C34.1607 73.6316 34.1606 73.6316 34.1605 73.6316C34.1604 73.6316 34.1604 73.6316 34.1603 73.6316C34.1602 73.6316 34.1601 73.6316 34.16 73.6316C34.1599 73.6316 34.1598 73.6316 34.1597 73.6316C34.1596 73.6316 34.1595 73.6316 34.1594 73.6316C34.1593 73.6316 34.1592 73.6316 34.1591 73.6316C34.159 73.6316 34.1589 73.6316 34.1588 73.6316C34.1588 73.6316 34.1587 73.6316 34.1586 73.6316C34.1585 73.6316 34.1584 73.6316 34.1583 73.6316C34.1582 73.6316 34.1581 73.6316 34.158 73.6316C34.1579 73.6316 34.1578 73.6316 34.1577 73.6316C34.1576 73.6316 34.1575 73.6316 34.1574 73.6316C34.1573 73.6316 34.1572 73.6316 34.1571 73.6316C34.157 73.6316 34.157 73.6316 34.1569 73.6316C34.1568 73.6316 34.1567 73.6316 34.1566 73.6316C34.1565 73.6316 34.1564 73.6316 34.1563 73.6316C34.1562 73.6316 34.1561 73.6316 34.156 73.6316C34.1559 73.6316 34.1558 73.6316 34.1557 73.6316C34.1556 73.6316 34.1555 73.6316 34.1554 73.6316C34.1553 73.6316 34.1552 73.6316 34.1551 73.6316C34.155 73.6316 34.1549 73.6316 34.1549 73.6316C34.1548 73.6316 34.1547 73.6316 34.1546 73.6316C34.1545 73.6316 34.1544 73.6316 34.1543 73.6316C34.1542 73.6316 34.1541 73.6316 34.154 73.6316C34.1539 73.6316 34.1538 73.6316 34.1537 73.6316C34.1536 73.6316 34.1535 73.6316 34.1534 73.6316C34.1533 73.6316 34.1532 73.6316 34.1531 73.6316C34.153 73.6316 34.1529 73.6316 34.1528 73.6316C34.1527 73.6316 34.1526 73.6316 34.1525 73.6316C34.1525 73.6316 34.1524 73.6316 34.1523 73.6316C34.1522 73.6316 34.1521 73.6316 34.152 73.6316C34.1519 73.6316 34.1518 73.6316 34.1517 73.6316C34.1516 73.6316 34.1515 73.6316 34.1514 73.6316C34.1513 73.6316 34.1512 73.6316 34.1511 73.6316C34.151 73.6316 34.1509 73.6316 34.1508 73.6316C34.1507 73.6316 34.1506 73.6316 34.1505 73.6316C34.1504 73.6316 34.1503 73.6316 34.1502 73.6316C34.1501 73.6316 34.15 73.6316 34.1499 73.6316C34.1498 73.6316 34.1497 73.6316 34.1496 73.6316C34.1495 73.6316 34.1494 73.6316 34.1493 73.6316C34.1493 73.6316 34.1492 73.6316 34.1491 73.6316C34.149 73.6316 34.1489 73.6316 34.1488 73.6316C34.1487 73.6316 34.1486 73.6316 34.1485 73.6316C34.1484 73.6316 34.1483 73.6316 34.1482 73.6316C34.1481 73.6316 34.148 73.6316 34.1479 73.6316C34.1478 73.6316 34.1477 73.6316 34.1476 73.6316C34.1475 73.6316 34.1474 73.6316 34.1473 73.6316C34.1472 73.6316 34.1471 73.6316 34.147 73.6316C34.1469 73.6316 34.1468 73.6316 34.1467 73.6316C34.1466 73.6316 34.1465 73.6316 34.1464 73.6316C34.1463 73.6316 34.1462 73.6316 34.1461 73.6316C34.146 73.6316 34.1459 73.6316 34.1458 73.6316C34.1457 73.6316 34.1456 73.6316 34.1455 73.6316C34.1454 73.6316 34.1453 73.6316 34.1452 73.6316C34.1451 73.6316 34.145 73.6316 34.1449 73.6316C34.1448 73.6316 34.1447 73.6316 34.1446 73.6316C34.1445 73.6316 34.1444 73.6316 34.1443 73.6316C34.1442 73.6316 34.1441 73.6316 34.144 73.6316C34.1439 73.6316 34.1438 73.6316 34.1437 73.6316C34.1436 73.6316 34.1435 73.6316 34.1434 73.6316C34.1433 73.6316 34.1432 73.6316 34.1431 73.6316C34.143 73.6316 34.1429 73.6316 34.1428 73.6316C34.1427 73.6316 34.1426 73.6316 34.1425 73.6316C34.1424 73.6316 34.1423 73.6316 34.1422 73.6316C34.1421 73.6316 34.142 73.6316 34.1419 73.6316C34.1418 73.6316 34.1417 73.6316 34.1416 73.6316C34.1415 73.6316 34.1414 73.6316 34.1413 73.6316C34.1412 73.6316 34.1411 73.6316 34.141 73.6316C34.1409 73.6316 34.1408 73.6316 34.1407 73.6316C34.1406 73.6316 34.1405 73.6316 34.1404 73.6316C34.1403 73.6316 34.1402 73.6316 34.1401 73.6316C34.14 73.6316 34.1399 73.6316 34.1398 73.6316C34.1397 73.6316 34.1396 73.6316 34.1395 73.6316C34.1394 73.6316 34.1393 73.6316 34.1392 73.6316C34.1391 73.6316 34.139 73.6316 34.1389 73.6316C34.1388 73.6316 34.1387 73.6316 34.1386 73.6316C34.1385 73.6316 34.1384 73.6316 34.1383 73.6316C34.1382 73.6316 34.1381 73.6316 34.138 73.6316C34.1379 73.6316 34.1378 73.6316 34.1377 73.6316C34.1376 73.6316 34.1375 73.6316 34.1374 73.6316C34.1373 73.6316 34.1372 73.6316 34.1371 73.6316C34.137 73.6316 34.1369 73.6316 34.1368 73.6316C34.1367 73.6316 34.1366 73.6316 34.1365 73.6316C34.1364 73.6316 34.1362 73.6316 34.1361 73.6316C34.136 73.6316 34.1359 73.6316 34.1358 73.6316C34.1357 73.6316 34.1356 73.6316 34.1355 73.6316C34.1354 73.6316 34.1353 73.6316 34.1352 73.6316C34.1351 73.6316 34.135 73.6316 34.1349 73.6316C34.1348 73.6316 34.1347 73.6316 34.1346 73.6316C34.1345 73.6316 34.1344 73.6316 34.1343 73.6316C34.1342 73.6316 34.1341 73.6316 34.134 73.6316C34.1339 73.6316 34.1338 73.6316 34.1337 73.6316C34.1336 73.6316 34.1335 73.6316 34.1334 73.6316C34.1333 73.6316 34.1331 73.6316 34.133 73.6316C34.1329 73.6316 34.1328 73.6316 34.1327 73.6316C34.1326 73.6316 34.1325 73.6316 34.1324 73.6316C34.1323 73.6316 34.1322 73.6316 34.1321 73.6316C34.132 73.6316 34.1319 73.6316 34.1318 73.6316C34.1317 73.6316 34.1316 73.6316 34.1315 73.6316C34.1314 73.6316 34.1313 73.6316 34.1312 73.6316C34.1311 73.6316 34.131 73.6316 34.1308 73.6316C34.1307 73.6316 34.1306 73.6316 34.1305 73.6316C34.1304 73.6316 34.1303 73.6316 34.1302 73.6316C34.1301 73.6316 34.13 73.6316 34.1299 73.6316C34.1298 73.6316 34.1297 73.6316 34.1296 73.6316C34.1295 73.6316 34.1294 73.6316 34.1293 73.6316C34.1292 73.6316 34.1291 73.6316 34.1289 73.6316C34.1288 73.6316 34.1287 73.6316 34.1286 73.6316C34.1285 73.6316 34.1284 73.6316 34.1283 73.6316C34.1282 73.6316 34.1281 73.6316 34.128 73.6316C34.1279 73.6316 34.1278 73.6316 34.1277 73.6316C34.1276 73.6316 34.1275 73.6316 34.1273 73.6316C34.1272 73.6316 34.1271 73.6316 34.127 73.6316C34.1269 73.6316 34.1268 73.6316 34.1267 73.6316C34.1266 73.6316 34.1265 73.6316 34.1264 73.6316C34.1263 73.6316 34.1262 73.6316 34.1261 73.6316C34.126 73.6316 34.1258 73.6316 34.1257 73.6316C34.1256 73.6316 34.1255 73.6316 34.1254 73.6316C34.1253 73.6316 34.1252 73.6316 34.1251 73.6316C34.125 73.6316 34.1249 73.6316 34.1248 73.6316C34.1247 73.6316 34.1246 73.6316 34.1244 73.6316C34.1243 73.6316 34.1242 73.6316 34.1241 73.6316C34.124 73.6316 34.1239 73.6316 34.1238 73.6316C34.1237 73.6316 34.1236 73.6316 34.1235 73.6316C34.1234 73.6316 34.1232 73.6316 34.1231 73.6316C34.123 73.6316 34.1229 73.6316 34.1228 73.6316C34.1227 73.6316 34.1226 73.6316 34.1225 73.6316C34.1224 73.6316 34.1223 73.6316 34.1222 73.6316C34.1221 73.6316 34.1219 73.6316 34.1218 73.6316C34.1217 73.6316 34.1216 73.6316 34.1215 73.6316C34.1214 73.6316 34.1213 73.6316 34.1212 73.6316C34.1211 73.6316 34.121 73.6316 34.1208 73.6316C34.1207 73.6316 34.1206 73.6316 34.1205 73.6316C34.1204 73.6316 34.1203 73.6316 34.1202 73.6316C34.1201 73.6316 34.12 73.6316 34.1199 73.6316C34.1197 73.6316 34.1196 73.6316 34.1195 73.6316C34.1194 73.6316 34.1193 73.6316 34.1192 73.6316C34.1191 73.6316 34.119 73.6316 34.1189 73.6316C34.1187 73.6316 34.1186 73.6316 34.1185 73.6316C34.1184 73.6316 34.1183 73.6316 34.1182 73.6316C34.1181 73.6316 34.118 73.6316 34.1179 73.6316C34.1177 73.6316 34.1176 73.6316 34.1175 73.6316C34.1174 73.6316 34.1173 73.6316 34.1172 73.6316C34.1171 73.6316 34.117 73.6316 34.1168 73.6316C34.1167 73.6316 34.1166 73.6316 34.1165 73.6316C34.1164 73.6316 34.1163 73.6316 34.1162 73.6316C34.1161 73.6316 34.1159 73.6316 34.1158 73.6316C34.1157 73.6316 34.1156 73.6316 34.1155 73.6316C34.1154 73.6316 34.1153 73.6316 34.1152 73.6316C34.115 73.6316 34.1149 73.6316 34.1148 73.6316C34.1147 73.6316 34.1146 73.6316 34.1145 73.6316C34.1144 73.6316 34.1143 73.6316 34.1141 73.6316C34.114 73.6316 34.1139 73.6316 34.1138 73.6316C34.1137 73.6316 34.1136 73.6316 34.1135 73.6316C34.1133 73.6316 34.1132 73.6316 34.1131 73.6316C34.113 73.6316 34.1129 73.6316 34.1128 73.6316C34.1127 73.6316 34.1125 73.6316 34.1124 73.6316C34.1123 73.6316 34.1122 73.6316 34.1121 73.6316C34.112 73.6316 34.1119 73.6316 34.1117 73.6316C34.1116 73.6316 34.1115 73.6316 34.1114 73.6316C34.1113 73.6316 34.1112 73.6316 34.1111 73.6316C34.1109 73.6316 34.1108 73.6316 34.1107 73.6316C34.1106 73.6316 34.1105 73.6316 34.1104 73.6316C34.1102 73.6316 34.1101 73.6316 34.11 73.6316C34.1099 73.6316 34.1098 73.6316 34.1097 73.6316C34.1096 73.6316 34.1094 73.6316 34.1093 73.6316C34.1092 73.6316 34.1091 73.6316 34.109 73.6316C34.1089 73.6316 34.1087 73.6316 34.1086 73.6316C34.1085 73.6316 34.1084 73.6316 34.1083 73.6316C34.1082 73.6316 34.108 73.6316 34.1079 73.6316C34.1078 73.6316 34.1077 73.6316 34.1076 73.6316C34.1075 73.6316 34.1073 73.6316 34.1072 73.6316C34.1071 73.6316 34.107 73.6316 34.1069 73.6316C34.1067 73.6316 34.1066 73.6316 34.1065 73.6316C34.1064 73.6316 34.1063 73.6316 34.1062 73.6316C34.106 73.6316 34.1059 73.6316 34.1058 73.6316C34.1057 73.6316 34.1056 73.6316 34.1055 73.6316C34.1053 73.6316 34.1052 73.6316 34.1051 73.6316C34.105 73.6316 34.1049 73.6316 34.1047 73.6316C34.1046 73.6316 34.1045 73.6316 34.1044 73.6316C34.1043 73.6316 34.1041 73.6316 34.104 73.6316C34.1039 73.6316 34.1038 73.6316 34.1037 73.6316C34.1035 73.6316 34.1034 73.6316 34.1033 73.6316C34.1032 73.6316 34.1031 73.6316 34.103 73.6316C34.1028 73.6316 34.1027 73.6316 34.1026 73.6316C34.1025 73.6316 34.1024 73.6316 34.1022 73.6316C34.1021 73.6316 34.102 73.6316 34.1019 73.6316C34.1018 73.6316 34.1016 73.6316 34.1015 73.6316C34.1014 73.6316 34.1013 73.6316 34.1012 73.6316C34.101 73.6316 34.1009 73.6316 34.1008 73.6316C34.1007 73.6316 34.1005 73.6316 34.1004 73.6316C34.1003 73.6316 34.1002 73.6316 34.1001 73.6316C34.0999 73.6316 34.0998 73.6316 34.0997 73.6316C34.0996 73.6316 34.0995 73.6316 34.0993 73.6316C34.0992 73.6316 34.0991 73.6316 34.099 73.6316C34.0988 73.6316 34.0987 73.6316 34.0986 73.6316C34.0985 73.6316 34.0984 73.6316 34.0982 73.6316C34.0981 73.6316 34.098 73.6316 34.0979 73.6316C34.0977 73.6316 34.0976 73.6316 34.0975 73.6316C34.0974 73.6316 34.0973 73.6316 34.0971 73.6316C34.097 73.6316 34.0969 73.6316 34.0968 73.6316C34.0966 73.6316 34.0965 73.6316 34.0964 73.6316C34.0963 73.6316 34.0961 73.6316 34.096 73.6316C34.0959 73.6316 34.0958 73.6316 34.0956 73.6316C34.0955 73.6316 34.0954 73.6316 34.0953 73.6316C34.0952 73.6316 34.095 73.6316 34.0949 73.6316C34.0948 73.6316 34.0947 73.6316 34.0945 73.6316C34.0944 73.6316 34.0943 73.6316 34.0942 73.6316C34.094 73.6316 34.0939 73.6316 34.0938 73.6316C34.0937 73.6316 34.0935 73.6316 34.0934 73.6316C34.0933 73.6316 34.0932 73.6316 34.093 73.6316C34.0929 73.6316 34.0928 73.6316 34.0927 73.6316C34.0925 73.6316 34.0924 73.6316 34.0923 73.6316C34.0922 73.6316 34.092 73.6316 34.0919 73.6316C34.0918 73.6316 34.0917 73.6316 34.0915 73.6316C34.0914 73.6316 34.0913 73.6316 34.0911 73.6316C34.091 73.6316 34.0909 73.6316 34.0908 73.6316C34.0906 73.6316 34.0905 73.6316 34.0904 73.6316C34.0903 73.6316 34.0901 73.6316 34.09 73.6316C34.0899 73.6316 34.0897 73.6316 34.0896 73.6316C34.0895 73.6316 34.0894 73.6316 34.0892 73.6316C34.0891 73.6316 34.089 73.6316 34.0889 73.6316C34.0887 73.6316 34.0886 73.6316 34.0885 73.6316C34.0883 73.6316 34.0882 73.6316 34.0881 73.6316C34.088 73.6316 34.0878 73.6316 34.0877 73.6316C34.0876 73.6316 34.0874 73.6316 34.0873 73.6316C34.0872 73.6316 34.0871 73.6316 34.0869 73.6316C34.0868 73.6316 34.0867 73.6316 34.0865 73.6316C34.0864 73.6316 34.0863 73.6316 34.0862 73.6316C34.086 73.6316 34.0859 73.6316 34.0858 73.6316C34.0856 73.6316 34.0855 73.6316 34.0854 73.6316C34.0852 73.6316 34.0851 73.6316 34.085 73.6316C34.0849 73.6316 34.0847 73.6316 34.0846 73.6316C34.0845 73.6316 34.0843 73.6316 34.0842 73.6316C34.0841 73.6316 34.0839 73.6316 34.0838 73.6316C34.0837 73.6316 34.0835 73.6316 34.0834 73.6316C34.0833 73.6316 34.0832 73.6316 34.083 73.6316C34.0829 73.6316 34.0828 73.6316 34.0826 73.6316C34.0825 73.6316 34.0824 73.6316 34.0822 73.6316C34.0821 73.6316 34.082 73.6316 34.0818 73.6316C34.0817 73.6316 34.0816 73.6316 34.0814 73.6316C34.0813 73.6316 34.0812 73.6316 34.081 73.6316C34.0809 73.6316 34.0808 73.6316 34.0807 73.6316C34.0805 73.6316 34.0804 73.6316 34.0802 73.6316C34.0801 73.6316 34.08 73.6316 34.0798 73.6316C34.0797 73.6316 34.0796 73.6316 34.0794 73.6316C34.0793 73.6316 34.0792 73.6316 34.079 73.6316C34.0789 73.6316 34.0788 73.6316 34.0786 73.6316C34.0785 73.6316 34.0784 73.6316 34.0782 73.6316C34.0781 73.6316 34.078 73.6316 34.0778 73.6316C34.0777 73.6316 34.0776 73.6316 34.0774 73.6316C34.0773 73.6316 34.0772 73.6316 34.077 73.6316C34.0769 73.6316 34.0768 73.6316 34.0766 73.6316C34.0765 73.6316 34.0764 73.6316 34.0762 73.6316C34.0761 73.6316 34.076 73.6316 34.0758 73.6316C34.0757 73.6316 34.0755 73.6316 34.0754 73.6316C34.0753 73.6316 34.0751 73.6316 34.075 73.6316C34.0749 73.6316 34.0747 73.6316 34.0746 73.6316C34.0745 73.6316 34.0743 73.6316 34.0742 73.6316C34.074 73.6316 34.0739 73.6316 34.0738 73.6316C34.0736 73.6316 34.0735 73.6316 34.0734 73.6316C34.0732 73.6316 34.0731 73.6316 34.0729 73.6316C34.0728 73.6316 34.0727 73.6316 34.0725 73.6316C34.0724 73.6316 34.0723 73.6316 34.0721 73.6316C34.072 73.6316 34.0718 73.6316 34.0717 73.6316C34.0716 73.6316 34.0714 73.6316 34.0713 73.6316C34.0711 73.6316 34.071 73.6316 34.0709 73.6316C34.0707 73.6316 34.0706 73.6316 34.0705 73.6316C34.0703 73.6316 34.0702 73.6316 34.07 73.6316C34.0699 73.6316 34.0698 73.6316 34.0696 73.6316C34.0695 73.6316 34.0693 73.6316 34.0692 73.6316C34.0691 73.6316 34.0689 73.6316 34.0688 73.6316C34.0686 73.6316 34.0685 73.6316 34.0684 73.6316C34.0682 73.6316 34.0681 73.6316 34.0679 73.6316C34.0678 73.6316 34.0677 73.6316 34.0675 73.6316C34.0674 73.6316 34.0672 73.6316 34.0671 73.6316C34.067 73.6316 34.0668 73.6316 34.0667 73.6316C34.0665 73.6316 34.0664 73.6316 34.0662 73.6316C34.0661 73.6316 34.066 73.6316 34.0658 73.6316C34.0657 73.6316 34.0655 73.6316 34.0654 73.6316C34.0653 73.6316 34.0651 73.6316 34.065 73.6316C34.0648 73.6316 34.0647 73.6316 34.0645 73.6316C34.0644 73.6316 34.0643 73.6316 34.0641 73.6316C34.064 73.6316 34.0638 73.6316 34.0637 73.6316C34.0635 73.6316 34.0634 73.6316 34.0632 73.6316C34.0631 73.6316 34.063 73.6316 34.0628 73.6316C34.0627 73.6316 34.0625 73.6316 34.0624 73.6316C34.0622 73.6316 34.0621 73.6316 34.062 73.6316C34.0618 73.6316 34.0617 73.6316 34.0615 73.6316C34.0614 73.6316 34.0612 73.6316 34.0611 73.6316C34.0609 73.6316 34.0608 73.6316 34.0606 73.6316C34.0605 73.6316 34.0604 73.6316 34.0602 73.6316C34.0601 73.6316 34.0599 73.6316 34.0598 73.6316C34.0596 73.6316 34.0595 73.6316 34.0593 73.6316C34.0592 73.6316 34.059 73.6316 34.0589 73.6316C34.0588 73.6316 34.0586 73.6316 34.0585 73.6316C34.0583 73.6316 34.0582 73.6316 34.058 73.6316C34.0579 73.6316 34.0577 73.6316 34.0576 73.6316C34.0574 73.6316 34.0573 73.6316 34.0571 73.6316C34.057 73.6316 34.0568 73.6316 34.0567 73.6316C34.0565 73.6316 34.0564 73.6316 34.0562 73.6316C34.0561 73.6316 34.056 73.6316 34.0558 73.6316C34.0557 73.6316 34.0555 73.6316 34.0554 73.6316C34.0552 73.6316 34.0551 73.6316 34.0549 73.6316C34.0548 73.6316 34.0546 73.6316 34.0545 73.6316C34.0543 73.6316 34.0542 73.6316 34.054 73.6316C34.0539 73.6316 34.0537 73.6316 34.0536 73.6316C34.0534 73.6316 34.0533 73.6316 34.0531 73.6316C34.053 73.6316 34.0528 73.6316 34.0527 73.6316C34.0525 73.6316 34.0524 73.6316 34.0522 73.6316C34.0521 73.6316 34.0519 73.6316 34.0518 73.6316C34.0516 73.6316 34.0515 73.6316 34.0513 73.6316C34.0512 73.6316 34.051 73.6316 34.0509 73.6316C34.0507 73.6316 34.0506 73.6316 34.0504 73.6316C34.0503 73.6316 34.0501 73.6316 34.0499 73.6316C34.0498 73.6316 34.0496 73.6316 34.0495 73.6316C34.0493 73.6316 34.0492 73.6316 34.049 73.6316C34.0489 73.6316 34.0487 73.6316 34.0486 73.6316C34.0484 73.6316 34.0483 73.6316 34.0481 73.6316C34.048 73.6316 34.0478 73.6316 34.0477 73.6316C34.0475 73.6316 34.0473 73.6316 34.0472 73.6316C34.047 73.6316 34.0469 73.6316 34.0467 73.6316C34.0466 73.6316 34.0464 73.6316 34.0463 73.6316C34.0461 73.6316 34.046 73.6316 34.0458 73.6316C34.0457 73.6316 34.0455 73.6316 34.0453 73.6316C34.0452 73.6316 34.045 73.6316 34.0449 73.6316C34.0447 73.6316 34.0446 73.6316 34.0444 73.6316C34.0443 73.6316 34.0441 73.6316 34.0439 73.6316C34.0438 73.6316 34.0436 73.6316 34.0435 73.6316C34.0433 73.6316 34.0432 73.6316 34.043 73.6316C34.0428 73.6316 34.0427 73.6316 34.0425 73.6316C34.0424 73.6316 34.0422 73.6316 34.0421 73.6316C34.0419 73.6316 34.0417 73.6316 34.0416 73.6316C34.0414 73.6316 34.0413 73.6316 34.0411 73.6316C34.041 73.6316 34.0408 73.6316 34.0406 73.6316C34.0405 73.6316 34.0403 73.6316 34.0402 73.6316C34.04 73.6316 34.0399 73.6316 34.0397 73.6316C34.0395 73.6316 34.0394 73.6316 34.0392 73.6316C34.0391 73.6316 34.0389 73.6316 34.0387 73.6316C34.0386 73.6316 34.0384 73.6316 34.0383 73.6316C34.0381 73.6316 34.0379 73.6316 34.0378 73.6316C34.0376 73.6316 34.0375 73.6316 34.0373 73.6316C34.0371 73.6316 34.037 73.6316 34.0368 73.6316C34.0367 73.6316 34.0365 73.6316 34.0363 73.6316C34.0362 73.6316 34.036 73.6316 34.0359 73.6316C34.0357 73.6316 34.0355 73.6316 34.0354 73.6316C34.0352 73.6316 34.035 73.6316 34.0349 73.6316C34.0347 73.6316 34.0346 73.6316 34.0344 73.6316C34.0342 73.6316 34.0341 73.6316 34.0339 73.6316C34.0338 73.6316 34.0336 73.6316 34.0334 73.6316C34.0333 73.6316 34.0331 73.6316 34.0329 73.6316C34.0328 73.6316 34.0326 73.6316 34.0324 73.6316C34.0323 73.6316 34.0321 73.6316 34.032 73.6316C34.0318 73.6316 34.0316 73.6316 34.0315 73.6316C34.0313 73.6316 34.0311 73.6316 34.031 73.6316C34.0308 73.6316 34.0306 73.6316 34.0305 73.6316C34.0303 73.6316 34.0302 73.6316 34.03 73.6316C34.0298 73.6316 34.0297 73.6316 34.0295 73.6316C34.0293 73.6316 34.0292 73.6316 34.029 73.6316C34.0288 73.6316 34.0287 73.6316 34.0285 73.6316C34.0283 73.6316 34.0282 73.6316 34.028 73.6316C34.0278 73.6316 34.0277 73.6316 34.0275 73.6316C34.0273 73.6316 34.0272 73.6316 34.027 73.6316C34.0268 73.6316 34.0267 73.6316 34.0265 73.6316C34.0263 73.6316 34.0262 73.6316 34.026 73.6316C34.0258 73.6316 34.0257 73.6316 34.0255 73.6316C34.0253 73.6316 34.0252 73.6316 34.025 73.6316C34.0248 73.6316 34.0247 73.6316 34.0245 73.6316C34.0243 73.6316 34.0241 73.6316 34.024 73.6316C34.0238 73.6316 34.0236 73.6316 34.0235 73.6316C34.0233 73.6316 34.0231 73.6316 34.023 73.6316C34.0228 73.6316 34.0226 73.6316 34.0225 73.6316C34.0223 73.6316 34.0221 73.6316 34.0219 73.6316C34.0218 73.6316 34.0216 73.6316 34.0214 73.6316C34.0213 73.6316 34.0211 73.6316 34.0209 73.6316C34.0207 73.6316 34.0206 73.6316 34.0204 73.6316C34.0202 73.6316 34.0201 73.6316 34.0199 73.6316C34.0197 73.6316 34.0196 73.6316 34.0194 73.6316C34.0192 73.6316 34.019 73.6316 34.0189 73.6316C34.0187 73.6316 34.0185 73.6316 34.0183 73.6316C34.0182 73.6316 34.018 73.6316 34.0178 73.6316C34.0177 73.6316 34.0175 73.6316 34.0173 73.6316C34.0171 73.6316 34.017 73.6316 34.0168 73.6316C34.0166 73.6316 34.0164 73.6316 34.0163 73.6316C34.0161 73.6316 34.0159 73.6316 34.0157 73.6316C34.0156 73.6316 34.0154 73.6316 34.0152 73.6316C34.015 73.6316 34.0149 73.6316 34.0147 73.6316C34.0145 73.6316 34.0143 73.6316 34.0142 73.6316C34.014 73.6316 34.0138 73.6316 34.0136 73.6316C34.0135 73.6316 34.0133 73.6316 34.0131 73.6316C34.0129 73.6316 34.0128 73.6316 34.0126 73.6316C34.0124 73.6316 34.0122 73.6316 34.0121 73.6316C34.0119 73.6316 34.0117 73.6316 34.0115 73.6316C34.0114 73.6316 34.0112 73.6316 34.011 73.6316C34.0108 73.6316 34.0106 73.6316 34.0105 73.6316C34.0103 73.6316 34.0101 73.6316 34.0099 73.6316C34.0098 73.6316 34.0096 73.6316 34.0094 73.6316C34.0092 73.6316 34.009 73.6316 34.0089 73.6316C34.0087 73.6316 34.0085 73.6316 34.0083 73.6316V77.6316C34.0085 77.6316 34.0087 77.6316 34.0089 77.6316C34.009 77.6316 34.0092 77.6316 34.0094 77.6316C34.0096 77.6316 34.0098 77.6316 34.0099 77.6316C34.0101 77.6316 34.0103 77.6316 34.0105 77.6316C34.0106 77.6316 34.0108 77.6316 34.011 77.6316C34.0112 77.6316 34.0114 77.6316 34.0115 77.6316C34.0117 77.6316 34.0119 77.6316 34.0121 77.6316C34.0122 77.6316 34.0124 77.6316 34.0126 77.6316C34.0128 77.6316 34.0129 77.6316 34.0131 77.6316C34.0133 77.6316 34.0135 77.6316 34.0136 77.6316C34.0138 77.6316 34.014 77.6316 34.0142 77.6316C34.0143 77.6316 34.0145 77.6316 34.0147 77.6316C34.0149 77.6316 34.015 77.6316 34.0152 77.6316C34.0154 77.6316 34.0156 77.6316 34.0157 77.6316C34.0159 77.6316 34.0161 77.6316 34.0163 77.6316C34.0164 77.6316 34.0166 77.6316 34.0168 77.6316C34.017 77.6316 34.0171 77.6316 34.0173 77.6316C34.0175 77.6316 34.0177 77.6316 34.0178 77.6316C34.018 77.6316 34.0182 77.6316 34.0183 77.6316C34.0185 77.6316 34.0187 77.6316 34.0189 77.6316C34.019 77.6316 34.0192 77.6316 34.0194 77.6316C34.0196 77.6316 34.0197 77.6316 34.0199 77.6316C34.0201 77.6316 34.0202 77.6316 34.0204 77.6316C34.0206 77.6316 34.0207 77.6316 34.0209 77.6316C34.0211 77.6316 34.0213 77.6316 34.0214 77.6316C34.0216 77.6316 34.0218 77.6316 34.0219 77.6316C34.0221 77.6316 34.0223 77.6316 34.0225 77.6316C34.0226 77.6316 34.0228 77.6316 34.023 77.6316C34.0231 77.6316 34.0233 77.6316 34.0235 77.6316C34.0236 77.6316 34.0238 77.6316 34.024 77.6316C34.0241 77.6316 34.0243 77.6316 34.0245 77.6316C34.0247 77.6316 34.0248 77.6316 34.025 77.6316C34.0252 77.6316 34.0253 77.6316 34.0255 77.6316C34.0257 77.6316 34.0258 77.6316 34.026 77.6316C34.0262 77.6316 34.0263 77.6316 34.0265 77.6316C34.0267 77.6316 34.0268 77.6316 34.027 77.6316C34.0272 77.6316 34.0273 77.6316 34.0275 77.6316C34.0277 77.6316 34.0278 77.6316 34.028 77.6316C34.0282 77.6316 34.0283 77.6316 34.0285 77.6316C34.0287 77.6316 34.0288 77.6316 34.029 77.6316C34.0292 77.6316 34.0293 77.6316 34.0295 77.6316C34.0297 77.6316 34.0298 77.6316 34.03 77.6316C34.0302 77.6316 34.0303 77.6316 34.0305 77.6316C34.0306 77.6316 34.0308 77.6316 34.031 77.6316C34.0311 77.6316 34.0313 77.6316 34.0315 77.6316C34.0316 77.6316 34.0318 77.6316 34.032 77.6316C34.0321 77.6316 34.0323 77.6316 34.0324 77.6316C34.0326 77.6316 34.0328 77.6316 34.0329 77.6316C34.0331 77.6316 34.0333 77.6316 34.0334 77.6316C34.0336 77.6316 34.0338 77.6316 34.0339 77.6316C34.0341 77.6316 34.0342 77.6316 34.0344 77.6316C34.0346 77.6316 34.0347 77.6316 34.0349 77.6316C34.035 77.6316 34.0352 77.6316 34.0354 77.6316C34.0355 77.6316 34.0357 77.6316 34.0359 77.6316C34.036 77.6316 34.0362 77.6316 34.0363 77.6316C34.0365 77.6316 34.0367 77.6316 34.0368 77.6316C34.037 77.6316 34.0371 77.6316 34.0373 77.6316C34.0375 77.6316 34.0376 77.6316 34.0378 77.6316C34.0379 77.6316 34.0381 77.6316 34.0383 77.6316C34.0384 77.6316 34.0386 77.6316 34.0387 77.6316C34.0389 77.6316 34.0391 77.6316 34.0392 77.6316C34.0394 77.6316 34.0395 77.6316 34.0397 77.6316C34.0399 77.6316 34.04 77.6316 34.0402 77.6316C34.0403 77.6316 34.0405 77.6316 34.0406 77.6316C34.0408 77.6316 34.041 77.6316 34.0411 77.6316C34.0413 77.6316 34.0414 77.6316 34.0416 77.6316C34.0417 77.6316 34.0419 77.6316 34.0421 77.6316C34.0422 77.6316 34.0424 77.6316 34.0425 77.6316C34.0427 77.6316 34.0428 77.6316 34.043 77.6316C34.0432 77.6316 34.0433 77.6316 34.0435 77.6316C34.0436 77.6316 34.0438 77.6316 34.0439 77.6316C34.0441 77.6316 34.0443 77.6316 34.0444 77.6316C34.0446 77.6316 34.0447 77.6316 34.0449 77.6316C34.045 77.6316 34.0452 77.6316 34.0453 77.6316C34.0455 77.6316 34.0457 77.6316 34.0458 77.6316C34.046 77.6316 34.0461 77.6316 34.0463 77.6316C34.0464 77.6316 34.0466 77.6316 34.0467 77.6316C34.0469 77.6316 34.047 77.6316 34.0472 77.6316C34.0473 77.6316 34.0475 77.6316 34.0477 77.6316C34.0478 77.6316 34.048 77.6316 34.0481 77.6316C34.0483 77.6316 34.0484 77.6316 34.0486 77.6316C34.0487 77.6316 34.0489 77.6316 34.049 77.6316C34.0492 77.6316 34.0493 77.6316 34.0495 77.6316C34.0496 77.6316 34.0498 77.6316 34.0499 77.6316C34.0501 77.6316 34.0503 77.6316 34.0504 77.6316C34.0506 77.6316 34.0507 77.6316 34.0509 77.6316C34.051 77.6316 34.0512 77.6316 34.0513 77.6316C34.0515 77.6316 34.0516 77.6316 34.0518 77.6316C34.0519 77.6316 34.0521 77.6316 34.0522 77.6316C34.0524 77.6316 34.0525 77.6316 34.0527 77.6316C34.0528 77.6316 34.053 77.6316 34.0531 77.6316C34.0533 77.6316 34.0534 77.6316 34.0536 77.6316C34.0537 77.6316 34.0539 77.6316 34.054 77.6316C34.0542 77.6316 34.0543 77.6316 34.0545 77.6316C34.0546 77.6316 34.0548 77.6316 34.0549 77.6316C34.0551 77.6316 34.0552 77.6316 34.0554 77.6316C34.0555 77.6316 34.0557 77.6316 34.0558 77.6316C34.056 77.6316 34.0561 77.6316 34.0562 77.6316C34.0564 77.6316 34.0565 77.6316 34.0567 77.6316C34.0568 77.6316 34.057 77.6316 34.0571 77.6316C34.0573 77.6316 34.0574 77.6316 34.0576 77.6316C34.0577 77.6316 34.0579 77.6316 34.058 77.6316C34.0582 77.6316 34.0583 77.6316 34.0585 77.6316C34.0586 77.6316 34.0588 77.6316 34.0589 77.6316C34.059 77.6316 34.0592 77.6316 34.0593 77.6316C34.0595 77.6316 34.0596 77.6316 34.0598 77.6316C34.0599 77.6316 34.0601 77.6316 34.0602 77.6316C34.0604 77.6316 34.0605 77.6316 34.0606 77.6316C34.0608 77.6316 34.0609 77.6316 34.0611 77.6316C34.0612 77.6316 34.0614 77.6316 34.0615 77.6316C34.0617 77.6316 34.0618 77.6316 34.062 77.6316C34.0621 77.6316 34.0622 77.6316 34.0624 77.6316C34.0625 77.6316 34.0627 77.6316 34.0628 77.6316C34.063 77.6316 34.0631 77.6316 34.0632 77.6316C34.0634 77.6316 34.0635 77.6316 34.0637 77.6316C34.0638 77.6316 34.064 77.6316 34.0641 77.6316C34.0643 77.6316 34.0644 77.6316 34.0645 77.6316C34.0647 77.6316 34.0648 77.6316 34.065 77.6316C34.0651 77.6316 34.0653 77.6316 34.0654 77.6316C34.0655 77.6316 34.0657 77.6316 34.0658 77.6316C34.066 77.6316 34.0661 77.6316 34.0662 77.6316C34.0664 77.6316 34.0665 77.6316 34.0667 77.6316C34.0668 77.6316 34.067 77.6316 34.0671 77.6316C34.0672 77.6316 34.0674 77.6316 34.0675 77.6316C34.0677 77.6316 34.0678 77.6316 34.0679 77.6316C34.0681 77.6316 34.0682 77.6316 34.0684 77.6316C34.0685 77.6316 34.0686 77.6316 34.0688 77.6316C34.0689 77.6316 34.0691 77.6316 34.0692 77.6316C34.0693 77.6316 34.0695 77.6316 34.0696 77.6316C34.0698 77.6316 34.0699 77.6316 34.07 77.6316C34.0702 77.6316 34.0703 77.6316 34.0705 77.6316C34.0706 77.6316 34.0707 77.6316 34.0709 77.6316C34.071 77.6316 34.0711 77.6316 34.0713 77.6316C34.0714 77.6316 34.0716 77.6316 34.0717 77.6316C34.0718 77.6316 34.072 77.6316 34.0721 77.6316C34.0723 77.6316 34.0724 77.6316 34.0725 77.6316C34.0727 77.6316 34.0728 77.6316 34.0729 77.6316C34.0731 77.6316 34.0732 77.6316 34.0734 77.6316C34.0735 77.6316 34.0736 77.6316 34.0738 77.6316C34.0739 77.6316 34.074 77.6316 34.0742 77.6316C34.0743 77.6316 34.0745 77.6316 34.0746 77.6316C34.0747 77.6316 34.0749 77.6316 34.075 77.6316C34.0751 77.6316 34.0753 77.6316 34.0754 77.6316C34.0755 77.6316 34.0757 77.6316 34.0758 77.6316C34.076 77.6316 34.0761 77.6316 34.0762 77.6316C34.0764 77.6316 34.0765 77.6316 34.0766 77.6316C34.0768 77.6316 34.0769 77.6316 34.077 77.6316C34.0772 77.6316 34.0773 77.6316 34.0774 77.6316C34.0776 77.6316 34.0777 77.6316 34.0778 77.6316C34.078 77.6316 34.0781 77.6316 34.0782 77.6316C34.0784 77.6316 34.0785 77.6316 34.0786 77.6316C34.0788 77.6316 34.0789 77.6316 34.079 77.6316C34.0792 77.6316 34.0793 77.6316 34.0794 77.6316C34.0796 77.6316 34.0797 77.6316 34.0798 77.6316C34.08 77.6316 34.0801 77.6316 34.0802 77.6316C34.0804 77.6316 34.0805 77.6316 34.0807 77.6316C34.0808 77.6316 34.0809 77.6316 34.081 77.6316C34.0812 77.6316 34.0813 77.6316 34.0814 77.6316C34.0816 77.6316 34.0817 77.6316 34.0818 77.6316C34.082 77.6316 34.0821 77.6316 34.0822 77.6316C34.0824 77.6316 34.0825 77.6316 34.0826 77.6316C34.0828 77.6316 34.0829 77.6316 34.083 77.6316C34.0832 77.6316 34.0833 77.6316 34.0834 77.6316C34.0835 77.6316 34.0837 77.6316 34.0838 77.6316C34.0839 77.6316 34.0841 77.6316 34.0842 77.6316C34.0843 77.6316 34.0845 77.6316 34.0846 77.6316C34.0847 77.6316 34.0849 77.6316 34.085 77.6316C34.0851 77.6316 34.0852 77.6316 34.0854 77.6316C34.0855 77.6316 34.0856 77.6316 34.0858 77.6316C34.0859 77.6316 34.086 77.6316 34.0862 77.6316C34.0863 77.6316 34.0864 77.6316 34.0865 77.6316C34.0867 77.6316 34.0868 77.6316 34.0869 77.6316C34.0871 77.6316 34.0872 77.6316 34.0873 77.6316C34.0874 77.6316 34.0876 77.6316 34.0877 77.6316C34.0878 77.6316 34.088 77.6316 34.0881 77.6316C34.0882 77.6316 34.0883 77.6316 34.0885 77.6316C34.0886 77.6316 34.0887 77.6316 34.0889 77.6316C34.089 77.6316 34.0891 77.6316 34.0892 77.6316C34.0894 77.6316 34.0895 77.6316 34.0896 77.6316C34.0897 77.6316 34.0899 77.6316 34.09 77.6316C34.0901 77.6316 34.0903 77.6316 34.0904 77.6316C34.0905 77.6316 34.0906 77.6316 34.0908 77.6316C34.0909 77.6316 34.091 77.6316 34.0911 77.6316C34.0913 77.6316 34.0914 77.6316 34.0915 77.6316C34.0917 77.6316 34.0918 77.6316 34.0919 77.6316C34.092 77.6316 34.0922 77.6316 34.0923 77.6316C34.0924 77.6316 34.0925 77.6316 34.0927 77.6316C34.0928 77.6316 34.0929 77.6316 34.093 77.6316C34.0932 77.6316 34.0933 77.6316 34.0934 77.6316C34.0935 77.6316 34.0937 77.6316 34.0938 77.6316C34.0939 77.6316 34.094 77.6316 34.0942 77.6316C34.0943 77.6316 34.0944 77.6316 34.0945 77.6316C34.0947 77.6316 34.0948 77.6316 34.0949 77.6316C34.095 77.6316 34.0952 77.6316 34.0953 77.6316C34.0954 77.6316 34.0955 77.6316 34.0956 77.6316C34.0958 77.6316 34.0959 77.6316 34.096 77.6316C34.0961 77.6316 34.0963 77.6316 34.0964 77.6316C34.0965 77.6316 34.0966 77.6316 34.0968 77.6316C34.0969 77.6316 34.097 77.6316 34.0971 77.6316C34.0973 77.6316 34.0974 77.6316 34.0975 77.6316C34.0976 77.6316 34.0977 77.6316 34.0979 77.6316C34.098 77.6316 34.0981 77.6316 34.0982 77.6316C34.0984 77.6316 34.0985 77.6316 34.0986 77.6316C34.0987 77.6316 34.0988 77.6316 34.099 77.6316C34.0991 77.6316 34.0992 77.6316 34.0993 77.6316C34.0995 77.6316 34.0996 77.6316 34.0997 77.6316C34.0998 77.6316 34.0999 77.6316 34.1001 77.6316C34.1002 77.6316 34.1003 77.6316 34.1004 77.6316C34.1005 77.6316 34.1007 77.6316 34.1008 77.6316C34.1009 77.6316 34.101 77.6316 34.1012 77.6316C34.1013 77.6316 34.1014 77.6316 34.1015 77.6316C34.1016 77.6316 34.1018 77.6316 34.1019 77.6316C34.102 77.6316 34.1021 77.6316 34.1022 77.6316C34.1024 77.6316 34.1025 77.6316 34.1026 77.6316C34.1027 77.6316 34.1028 77.6316 34.103 77.6316C34.1031 77.6316 34.1032 77.6316 34.1033 77.6316C34.1034 77.6316 34.1035 77.6316 34.1037 77.6316C34.1038 77.6316 34.1039 77.6316 34.104 77.6316C34.1041 77.6316 34.1043 77.6316 34.1044 77.6316C34.1045 77.6316 34.1046 77.6316 34.1047 77.6316C34.1049 77.6316 34.105 77.6316 34.1051 77.6316C34.1052 77.6316 34.1053 77.6316 34.1055 77.6316C34.1056 77.6316 34.1057 77.6316 34.1058 77.6316C34.1059 77.6316 34.106 77.6316 34.1062 77.6316C34.1063 77.6316 34.1064 77.6316 34.1065 77.6316C34.1066 77.6316 34.1067 77.6316 34.1069 77.6316C34.107 77.6316 34.1071 77.6316 34.1072 77.6316C34.1073 77.6316 34.1075 77.6316 34.1076 77.6316C34.1077 77.6316 34.1078 77.6316 34.1079 77.6316C34.108 77.6316 34.1082 77.6316 34.1083 77.6316C34.1084 77.6316 34.1085 77.6316 34.1086 77.6316C34.1087 77.6316 34.1089 77.6316 34.109 77.6316C34.1091 77.6316 34.1092 77.6316 34.1093 77.6316C34.1094 77.6316 34.1096 77.6316 34.1097 77.6316C34.1098 77.6316 34.1099 77.6316 34.11 77.6316C34.1101 77.6316 34.1102 77.6316 34.1104 77.6316C34.1105 77.6316 34.1106 77.6316 34.1107 77.6316C34.1108 77.6316 34.1109 77.6316 34.1111 77.6316C34.1112 77.6316 34.1113 77.6316 34.1114 77.6316C34.1115 77.6316 34.1116 77.6316 34.1117 77.6316C34.1119 77.6316 34.112 77.6316 34.1121 77.6316C34.1122 77.6316 34.1123 77.6316 34.1124 77.6316C34.1125 77.6316 34.1127 77.6316 34.1128 77.6316C34.1129 77.6316 34.113 77.6316 34.1131 77.6316C34.1132 77.6316 34.1133 77.6316 34.1135 77.6316C34.1136 77.6316 34.1137 77.6316 34.1138 77.6316C34.1139 77.6316 34.114 77.6316 34.1141 77.6316C34.1143 77.6316 34.1144 77.6316 34.1145 77.6316C34.1146 77.6316 34.1147 77.6316 34.1148 77.6316C34.1149 77.6316 34.115 77.6316 34.1152 77.6316C34.1153 77.6316 34.1154 77.6316 34.1155 77.6316C34.1156 77.6316 34.1157 77.6316 34.1158 77.6316C34.1159 77.6316 34.1161 77.6316 34.1162 77.6316C34.1163 77.6316 34.1164 77.6316 34.1165 77.6316C34.1166 77.6316 34.1167 77.6316 34.1168 77.6316C34.117 77.6316 34.1171 77.6316 34.1172 77.6316C34.1173 77.6316 34.1174 77.6316 34.1175 77.6316C34.1176 77.6316 34.1177 77.6316 34.1179 77.6316C34.118 77.6316 34.1181 77.6316 34.1182 77.6316C34.1183 77.6316 34.1184 77.6316 34.1185 77.6316C34.1186 77.6316 34.1187 77.6316 34.1189 77.6316C34.119 77.6316 34.1191 77.6316 34.1192 77.6316C34.1193 77.6316 34.1194 77.6316 34.1195 77.6316C34.1196 77.6316 34.1197 77.6316 34.1199 77.6316C34.12 77.6316 34.1201 77.6316 34.1202 77.6316C34.1203 77.6316 34.1204 77.6316 34.1205 77.6316C34.1206 77.6316 34.1207 77.6316 34.1208 77.6316C34.121 77.6316 34.1211 77.6316 34.1212 77.6316C34.1213 77.6316 34.1214 77.6316 34.1215 77.6316C34.1216 77.6316 34.1217 77.6316 34.1218 77.6316C34.1219 77.6316 34.1221 77.6316 34.1222 77.6316C34.1223 77.6316 34.1224 77.6316 34.1225 77.6316C34.1226 77.6316 34.1227 77.6316 34.1228 77.6316C34.1229 77.6316 34.123 77.6316 34.1231 77.6316C34.1232 77.6316 34.1234 77.6316 34.1235 77.6316C34.1236 77.6316 34.1237 77.6316 34.1238 77.6316C34.1239 77.6316 34.124 77.6316 34.1241 77.6316C34.1242 77.6316 34.1243 77.6316 34.1244 77.6316C34.1246 77.6316 34.1247 77.6316 34.1248 77.6316C34.1249 77.6316 34.125 77.6316 34.1251 77.6316C34.1252 77.6316 34.1253 77.6316 34.1254 77.6316C34.1255 77.6316 34.1256 77.6316 34.1257 77.6316C34.1258 77.6316 34.126 77.6316 34.1261 77.6316C34.1262 77.6316 34.1263 77.6316 34.1264 77.6316C34.1265 77.6316 34.1266 77.6316 34.1267 77.6316C34.1268 77.6316 34.1269 77.6316 34.127 77.6316C34.1271 77.6316 34.1272 77.6316 34.1273 77.6316C34.1275 77.6316 34.1276 77.6316 34.1277 77.6316C34.1278 77.6316 34.1279 77.6316 34.128 77.6316C34.1281 77.6316 34.1282 77.6316 34.1283 77.6316C34.1284 77.6316 34.1285 77.6316 34.1286 77.6316C34.1287 77.6316 34.1288 77.6316 34.1289 77.6316C34.1291 77.6316 34.1292 77.6316 34.1293 77.6316C34.1294 77.6316 34.1295 77.6316 34.1296 77.6316C34.1297 77.6316 34.1298 77.6316 34.1299 77.6316C34.13 77.6316 34.1301 77.6316 34.1302 77.6316C34.1303 77.6316 34.1304 77.6316 34.1305 77.6316C34.1306 77.6316 34.1307 77.6316 34.1308 77.6316C34.131 77.6316 34.1311 77.6316 34.1312 77.6316C34.1313 77.6316 34.1314 77.6316 34.1315 77.6316C34.1316 77.6316 34.1317 77.6316 34.1318 77.6316C34.1319 77.6316 34.132 77.6316 34.1321 77.6316C34.1322 77.6316 34.1323 77.6316 34.1324 77.6316C34.1325 77.6316 34.1326 77.6316 34.1327 77.6316C34.1328 77.6316 34.1329 77.6316 34.133 77.6316C34.1331 77.6316 34.1333 77.6316 34.1334 77.6316C34.1335 77.6316 34.1336 77.6316 34.1337 77.6316C34.1338 77.6316 34.1339 77.6316 34.134 77.6316C34.1341 77.6316 34.1342 77.6316 34.1343 77.6316C34.1344 77.6316 34.1345 77.6316 34.1346 77.6316C34.1347 77.6316 34.1348 77.6316 34.1349 77.6316C34.135 77.6316 34.1351 77.6316 34.1352 77.6316C34.1353 77.6316 34.1354 77.6316 34.1355 77.6316C34.1356 77.6316 34.1357 77.6316 34.1358 77.6316C34.1359 77.6316 34.136 77.6316 34.1361 77.6316C34.1362 77.6316 34.1364 77.6316 34.1365 77.6316C34.1366 77.6316 34.1367 77.6316 34.1368 77.6316C34.1369 77.6316 34.137 77.6316 34.1371 77.6316C34.1372 77.6316 34.1373 77.6316 34.1374 77.6316C34.1375 77.6316 34.1376 77.6316 34.1377 77.6316C34.1378 77.6316 34.1379 77.6316 34.138 77.6316C34.1381 77.6316 34.1382 77.6316 34.1383 77.6316C34.1384 77.6316 34.1385 77.6316 34.1386 77.6316C34.1387 77.6316 34.1388 77.6316 34.1389 77.6316C34.139 77.6316 34.1391 77.6316 34.1392 77.6316C34.1393 77.6316 34.1394 77.6316 34.1395 77.6316C34.1396 77.6316 34.1397 77.6316 34.1398 77.6316C34.1399 77.6316 34.14 77.6316 34.1401 77.6316C34.1402 77.6316 34.1403 77.6316 34.1404 77.6316C34.1405 77.6316 34.1406 77.6316 34.1407 77.6316C34.1408 77.6316 34.1409 77.6316 34.141 77.6316C34.1411 77.6316 34.1412 77.6316 34.1413 77.6316C34.1414 77.6316 34.1415 77.6316 34.1416 77.6316C34.1417 77.6316 34.1418 77.6316 34.1419 77.6316C34.142 77.6316 34.1421 77.6316 34.1422 77.6316C34.1423 77.6316 34.1424 77.6316 34.1425 77.6316C34.1426 77.6316 34.1427 77.6316 34.1428 77.6316C34.1429 77.6316 34.143 77.6316 34.1431 77.6316C34.1432 77.6316 34.1433 77.6316 34.1434 77.6316C34.1435 77.6316 34.1436 77.6316 34.1437 77.6316C34.1438 77.6316 34.1439 77.6316 34.144 77.6316C34.1441 77.6316 34.1442 77.6316 34.1443 77.6316C34.1444 77.6316 34.1445 77.6316 34.1446 77.6316C34.1447 77.6316 34.1448 77.6316 34.1449 77.6316C34.145 77.6316 34.1451 77.6316 34.1452 77.6316C34.1453 77.6316 34.1454 77.6316 34.1455 77.6316C34.1456 77.6316 34.1457 77.6316 34.1458 77.6316C34.1459 77.6316 34.146 77.6316 34.1461 77.6316C34.1462 77.6316 34.1463 77.6316 34.1464 77.6316C34.1465 77.6316 34.1466 77.6316 34.1467 77.6316C34.1468 77.6316 34.1469 77.6316 34.147 77.6316C34.1471 77.6316 34.1472 77.6316 34.1473 77.6316C34.1474 77.6316 34.1475 77.6316 34.1476 77.6316C34.1477 77.6316 34.1478 77.6316 34.1479 77.6316C34.148 77.6316 34.1481 77.6316 34.1482 77.6316C34.1483 77.6316 34.1484 77.6316 34.1485 77.6316C34.1486 77.6316 34.1487 77.6316 34.1488 77.6316C34.1489 77.6316 34.149 77.6316 34.1491 77.6316C34.1492 77.6316 34.1493 77.6316 34.1493 77.6316C34.1494 77.6316 34.1495 77.6316 34.1496 77.6316C34.1497 77.6316 34.1498 77.6316 34.1499 77.6316C34.15 77.6316 34.1501 77.6316 34.1502 77.6316C34.1503 77.6316 34.1504 77.6316 34.1505 77.6316C34.1506 77.6316 34.1507 77.6316 34.1508 77.6316C34.1509 77.6316 34.151 77.6316 34.1511 77.6316C34.1512 77.6316 34.1513 77.6316 34.1514 77.6316C34.1515 77.6316 34.1516 77.6316 34.1517 77.6316C34.1518 77.6316 34.1519 77.6316 34.152 77.6316C34.1521 77.6316 34.1522 77.6316 34.1523 77.6316C34.1524 77.6316 34.1525 77.6316 34.1525 77.6316C34.1526 77.6316 34.1527 77.6316 34.1528 77.6316C34.1529 77.6316 34.153 77.6316 34.1531 77.6316C34.1532 77.6316 34.1533 77.6316 34.1534 77.6316C34.1535 77.6316 34.1536 77.6316 34.1537 77.6316C34.1538 77.6316 34.1539 77.6316 34.154 77.6316C34.1541 77.6316 34.1542 77.6316 34.1543 77.6316C34.1544 77.6316 34.1545 77.6316 34.1546 77.6316C34.1547 77.6316 34.1548 77.6316 34.1549 77.6316C34.1549 77.6316 34.155 77.6316 34.1551 77.6316C34.1552 77.6316 34.1553 77.6316 34.1554 77.6316C34.1555 77.6316 34.1556 77.6316 34.1557 77.6316C34.1558 77.6316 34.1559 77.6316 34.156 77.6316C34.1561 77.6316 34.1562 77.6316 34.1563 77.6316C34.1564 77.6316 34.1565 77.6316 34.1566 77.6316C34.1567 77.6316 34.1568 77.6316 34.1569 77.6316C34.157 77.6316 34.157 77.6316 34.1571 77.6316C34.1572 77.6316 34.1573 77.6316 34.1574 77.6316C34.1575 77.6316 34.1576 77.6316 34.1577 77.6316C34.1578 77.6316 34.1579 77.6316 34.158 77.6316C34.1581 77.6316 34.1582 77.6316 34.1583 77.6316C34.1584 77.6316 34.1585 77.6316 34.1586 77.6316C34.1587 77.6316 34.1588 77.6316 34.1588 77.6316C34.1589 77.6316 34.159 77.6316 34.1591 77.6316C34.1592 77.6316 34.1593 77.6316 34.1594 77.6316C34.1595 77.6316 34.1596 77.6316 34.1597 77.6316C34.1598 77.6316 34.1599 77.6316 34.16 77.6316C34.1601 77.6316 34.1602 77.6316 34.1603 77.6316C34.1604 77.6316 34.1604 77.6316 34.1605 77.6316C34.1606 77.6316 34.1607 77.6316 34.1608 77.6316C34.1609 77.6316 34.161 77.6316 34.1611 77.6316C34.1612 77.6316 34.1613 77.6316 34.1614 77.6316C34.1615 77.6316 34.1616 77.6316 34.1617 77.6316C34.1618 77.6316 34.1619 77.6316 34.1619 77.6316C34.162 77.6316 34.1621 77.6316 34.1622 77.6316C34.1623 77.6316 34.1624 77.6316 34.1625 77.6316C34.1626 77.6316 34.1627 77.6316 34.1628 77.6316C34.1629 77.6316 34.163 77.6316 34.1631 77.6316C34.1632 77.6316 34.1633 77.6316 34.1633 77.6316C34.1634 77.6316 34.1635 77.6316 34.1636 77.6316C34.1637 77.6316 34.1638 77.6316 34.1639 77.6316C34.164 77.6316 34.1641 77.6316 34.1642 77.6316C34.1643 77.6316 34.1644 77.6316 34.1645 77.6316C34.1646 77.6316 34.1646 77.6316 34.1647 77.6316C34.1648 77.6316 34.1649 77.6316 34.165 77.6316C34.1651 77.6316 34.1652 77.6316 34.1653 77.6316C34.1654 77.6316 34.1655 77.6316 34.1656 77.6316C34.1657 77.6316 34.1658 77.6316 34.1659 77.6316C34.1659 77.6316 34.166 77.6316 34.1661 77.6316C34.1662 77.6316 34.1663 77.6316 34.1664 77.6316C34.1665 77.6316 34.1666 77.6316 34.1667 77.6316C34.1668 77.6316 34.1669 77.6316 34.167 77.6316C34.1671 77.6316 34.1672 77.6316 34.1672 77.6316C34.1673 77.6316 34.1674 77.6316 34.1675 77.6316C34.1676 77.6316 34.1677 77.6316 34.1678 77.6316C34.1679 77.6316 34.168 77.6316 34.1681 77.6316C34.1682 77.6316 34.1683 77.6316 34.1684 77.6316C34.1684 77.6316 34.1685 77.6316 34.1686 77.6316C34.1687 77.6316 34.1688 77.6316 34.1689 77.6316C34.169 77.6316 34.1691 77.6316 34.1692 77.6316C34.1693 77.6316 34.1694 77.6316 34.1695 77.6316C34.1695 77.6316 34.1696 77.6316 34.1697 77.6316C34.1698 77.6316 34.1699 77.6316 34.17 77.6316C34.1701 77.6316 34.1702 77.6316 34.1703 77.6316C34.1704 77.6316 34.1705 77.6316 34.1706 77.6316C34.1706 77.6316 34.1707 77.6316 34.1708 77.6316C34.1709 77.6316 34.171 77.6316 34.1711 77.6316C34.1712 77.6316 34.1713 77.6316 34.1714 77.6316C34.1715 77.6316 34.1716 77.6316 34.1716 77.6316C34.1717 77.6316 34.1718 77.6316 34.1719 77.6316C34.172 77.6316 34.1721 77.6316 34.1722 77.6316C34.1723 77.6316 34.1724 77.6316 34.1725 77.6316C34.1726 77.6316 34.1727 77.6316 34.1727 77.6316C34.1728 77.6316 34.1729 77.6316 34.173 77.6316C34.1731 77.6316 34.1732 77.6316 34.1733 77.6316C34.1734 77.6316 34.1735 77.6316 34.1736 77.6316C34.1737 77.6316 34.1737 77.6316 34.1738 77.6316C34.1739 77.6316 34.174 77.6316 34.1741 77.6316C34.1742 77.6316 34.1743 77.6316 34.1744 77.6316C34.1745 77.6316 34.1746 77.6316 34.1747 77.6316C34.1747 77.6316 34.1748 77.6316 34.1749 77.6316C34.175 77.6316 34.1751 77.6316 34.1752 77.6316C34.1753 77.6316 34.1754 77.6316 34.1755 77.6316C34.1756 77.6316 34.1757 77.6316 34.1757 77.6316C34.1758 77.6316 34.1759 77.6316 34.176 77.6316C34.1761 77.6316 34.1762 77.6316 34.1763 77.6316C34.1764 77.6316 34.1765 77.6316 34.1766 77.6316C34.1767 77.6316 34.1767 77.6316 34.1768 77.6316C34.1769 77.6316 34.177 77.6316 34.1771 77.6316C34.1772 77.6316 34.1773 77.6316 34.1774 77.6316C34.1775 77.6316 34.1776 77.6316 34.1777 77.6316C34.1777 77.6316 34.1778 77.6316 34.1779 77.6316C34.178 77.6316 34.1781 77.6316 34.1782 77.6316C34.1783 77.6316 34.1784 77.6316 34.1785 77.6316C34.1786 77.6316 34.1786 77.6316 34.1787 77.6316C34.1788 77.6316 34.1789 77.6316 34.179 77.6316C34.1791 77.6316 34.1792 77.6316 34.1793 77.6316C34.1794 77.6316 34.1795 77.6316 34.1795 77.6316C34.1796 77.6316 34.1797 77.6316 34.1798 77.6316C34.1799 77.6316 34.18 77.6316 34.1801 77.6316C34.1802 77.6316 34.1803 77.6316 34.1804 77.6316C34.1804 77.6316 34.1805 77.6316 34.1806 77.6316C34.1807 77.6316 34.1808 77.6316 34.1809 77.6316C34.181 77.6316 34.1811 77.6316 34.1812 77.6316C34.1813 77.6316 34.1813 77.6316 34.1814 77.6316C34.1815 77.6316 34.1816 77.6316 34.1817 77.6316C34.1818 77.6316 34.1819 77.6316 34.182 77.6316C34.1821 77.6316 34.1822 77.6316 34.1822 77.6316C34.1823 77.6316 34.1824 77.6316 34.1825 77.6316C34.1826 77.6316 34.1827 77.6316 34.1828 77.6316C34.1829 77.6316 34.183 77.6316 34.1831 77.6316C34.1831 77.6316 34.1832 77.6316 34.1833 77.6316C34.1834 77.6316 34.1835 77.6316 34.1836 77.6316C34.1837 77.6316 34.1838 77.6316 34.1839 77.6316C34.184 77.6316 34.184 77.6316 34.1841 77.6316C34.1842 77.6316 34.1843 77.6316 34.1844 77.6316C34.1845 77.6316 34.1846 77.6316 34.1847 77.6316C34.1848 77.6316 34.1849 77.6316 34.1849 77.6316C34.185 77.6316 34.1851 77.6316 34.1852 77.6316C34.1853 77.6316 34.1854 77.6316 34.1855 77.6316C34.1856 77.6316 34.1857 77.6316 34.1857 77.6316C34.1858 77.6316 34.1859 77.6316 34.186 77.6316C34.1861 77.6316 34.1862 77.6316 34.1863 77.6316C34.1864 77.6316 34.1865 77.6316 34.1866 77.6316C34.1866 77.6316 34.1867 77.6316 34.1868 77.6316C34.1869 77.6316 34.187 77.6316 34.1871 77.6316C34.1872 77.6316 34.1873 77.6316 34.1874 77.6316C34.1875 77.6316 34.1875 77.6316 34.1876 77.6316C34.1877 77.6316 34.1878 77.6316 34.1879 77.6316C34.188 77.6316 34.1881 77.6316 34.1882 77.6316C34.1883 77.6316 34.1884 77.6316 34.1884 77.6316C34.1885 77.6316 34.1886 77.6316 34.1887 77.6316C34.1888 77.6316 34.1889 77.6316 34.189 77.6316C34.1891 77.6316 34.1892 77.6316 34.1892 77.6316C34.1893 77.6316 34.1894 77.6316 34.1895 77.6316C34.1896 77.6316 34.1897 77.6316 34.1898 77.6316C34.1899 77.6316 34.19 77.6316 34.1901 77.6316C34.1901 77.6316 34.1902 77.6316 34.1903 77.6316C34.1904 77.6316 34.1905 77.6316 34.1906 77.6316C34.1907 77.6316 34.1908 77.6316 34.1909 77.6316C34.1909 77.6316 34.191 77.6316 34.1911 77.6316C34.1912 77.6316 34.1913 77.6316 34.1914 77.6316C34.1915 77.6316 34.1916 77.6316 34.1917 77.6316V73.6316ZM34.0083 73.6316H25.3V77.6316H34.0083V73.6316ZM25.3 73.6316C25.4243 73.6316 25.9167 73.6651 26.3423 74.1163C26.7449 74.543 26.75 74.9908 26.75 75.0372H22.75C22.75 75.4951 22.8468 76.2401 23.4327 76.8612C24.0417 77.5067 24.809 77.6316 25.3 77.6316V73.6316ZM32.7417 36.3068V51.6709H36.7417V36.3068H32.7417ZM34.5995 53.6659C35.2122 53.7095 35.8913 53.7624 36.5292 53.7624V49.7624C36.0671 49.7624 35.5545 49.7238 34.8838 49.676L34.5995 53.6659ZM36.5292 53.7624H38.9583V49.7624H36.5292V53.7624ZM38.9583 53.7624C40.9488 53.7624 42.9445 53.4571 44.8449 52.8422L43.6135 49.0365C42.1222 49.519 40.5428 49.7624 38.9583 49.7624V53.7624ZM44.7695 52.865C46.6534 52.3363 48.2576 51.2331 49.4874 49.8388L46.4876 47.1928C45.7008 48.0849 44.7382 48.7192 43.6888 49.0137L44.7695 52.865ZM49.5174 49.804C50.8818 48.1835 51.4083 46.1101 51.4083 43.806H47.4083C47.4083 45.5258 47.0182 46.5618 46.4576 47.2277L49.5174 49.804ZM51.4073 43.8706C51.4656 42.0676 50.9996 40.2738 50.0737 38.715L46.6346 40.7577C47.1754 41.6681 47.4427 42.7094 47.4094 43.7414L51.4073 43.8706ZM50.0269 38.64C49.03 37.1189 47.6014 35.9208 45.8537 35.2594L44.438 39.0005C45.3486 39.3451 46.12 39.976 46.6814 40.8326L50.0269 38.64ZM45.8957 35.2758C43.9046 34.4705 41.7923 34.1648 39.6888 34.216L39.7861 38.2148C41.441 38.1745 42.9954 38.4175 44.3959 38.984L45.8957 35.2758ZM39.7375 34.2154C38.5634 34.2154 37.4506 34.2148 36.516 34.2639L36.7257 38.2584C37.5328 38.216 38.5282 38.2154 39.7375 38.2154V34.2154ZM36.7205 34.2636C35.7032 34.2129 34.9309 34.2597 34.4595 34.3269L35.0239 38.2868C35.1941 38.2626 35.7051 38.2179 36.5212 38.2586L36.7205 34.2636ZM88.9395 47.116C87.3761 46.2841 85.7251 45.7217 84.0024 45.3678L83.1976 49.286C84.5915 49.5723 85.8739 50.0158 87.0605 50.6472L88.9395 47.116ZM84.0217 45.3719C82.2256 44.9844 80.3845 44.7325 78.4667 44.7325V48.7325C80.0321 48.7325 81.5828 48.9378 83.1783 49.2819L84.0217 45.3719ZM78.5663 44.735C77.3968 44.6766 76.2248 44.8514 75.2088 45.1181L76.2245 48.987C76.9502 48.7965 77.7032 48.6969 78.367 48.73L78.5663 44.735ZM75.2679 45.1035C74.2547 45.3368 73.2988 45.906 72.6586 46.8184L75.933 49.1158C75.9345 49.1137 75.9869 49.0427 76.1654 49.0016L75.2679 45.1035ZM72.601 46.9053C72.1871 47.566 71.9292 48.3879 71.9292 49.2017H75.9292C75.9292 49.2121 75.9286 49.1877 75.9433 49.1384C75.9576 49.0904 75.9769 49.051 75.9907 49.0289L72.601 46.9053ZM71.9292 49.2017C71.9292 50.1979 72.3618 51.0243 72.7888 51.5924L75.9862 49.1888C75.9612 49.1556 75.9431 49.1277 75.9306 49.1061C75.918 49.0844 75.9127 49.0718 75.9116 49.069C75.9087 49.062 75.9292 49.1093 75.9292 49.2017H71.9292ZM72.841 51.6588C73.4605 52.4142 74.2383 52.9782 74.9993 53.3871L76.8923 49.8633C76.4617 49.632 76.1395 49.373 75.934 49.1223L72.841 51.6588ZM75.0224 53.3993C76.1366 53.9793 77.2899 54.5061 78.4323 54.981L79.9677 51.2874C78.9101 50.8477 77.8633 50.3686 76.8693 49.8512L75.0224 53.3993ZM78.5689 55.032C80.8845 55.8021 83.1252 56.8755 85.2001 58.1693L87.3166 54.7751C84.9915 53.3253 82.4655 52.1125 79.8311 51.2364L78.5689 55.032ZM85.1864 58.1607C86.4324 58.9518 87.4329 59.9928 88.1343 61.2449L91.6241 59.2901C90.5838 57.4329 89.1092 55.9132 87.3303 54.7838L85.1864 58.1607ZM88.0912 61.1636C88.6805 62.3395 88.9705 63.6138 88.9341 64.9217L92.9326 65.033C92.9878 63.0486 92.5445 61.122 91.6672 59.3714L88.0912 61.1636ZM88.9338 65.02C88.9707 66.7505 88.4516 68.4982 87.4829 69.9478L90.8087 72.1702C92.2234 70.0531 92.9876 67.5025 92.9329 64.9347L88.9338 65.02ZM87.5086 69.9102C86.447 71.4233 84.9699 72.5932 83.2712 73.2711L84.7538 76.9862C87.1801 76.0179 89.278 74.3528 90.783 72.2077L87.5086 69.9102ZM83.2262 73.2897C81.2895 74.1177 78.8212 74.5919 75.7167 74.5919V78.5919C79.2121 78.5919 82.2438 78.06 84.7988 76.9676L83.2262 73.2897ZM75.7167 74.5919C73.7259 74.5919 71.7954 74.4193 69.8747 74.0361L69.092 77.9588C71.2963 78.3986 73.4908 78.5919 75.7167 78.5919V74.5919ZM69.8205 74.0261C68.3929 73.7819 66.9602 73.3326 65.6556 72.7225L63.9611 76.3459C65.5897 77.1075 67.3655 77.6643 69.1462 77.9688L69.8205 74.0261ZM65.7989 72.7967C65.886 72.8464 66.0122 72.9421 66.121 73.1184C66.239 73.3097 66.3291 73.5914 66.2887 73.914L62.3197 73.4167C62.1404 74.8477 63.0578 75.8384 63.8178 76.2717L65.7989 72.7967ZM66.3042 73.6654V65.709H62.3042V73.6654H66.3042ZM66.3042 65.709C66.3042 65.8429 66.2846 66.0129 66.2104 66.2055C66.1353 66.4003 65.9624 66.7184 65.5951 66.9627L63.3799 63.6321C62.4095 64.2775 62.3042 65.3198 62.3042 65.709H66.3042ZM65.5951 66.9627C65.2271 67.2075 64.7797 67.2934 64.3657 67.2246C64.0309 67.1689 63.8236 67.0292 63.7924 67.0084L66.0076 63.6779C65.8389 63.5656 65.4941 63.3573 65.0218 63.2788C64.4703 63.1871 63.8854 63.2959 63.3799 63.6321L65.5951 66.9627ZM63.8858 67.0669C65.8578 68.2272 67.931 69.0331 70.1411 69.5342L71.0256 65.6333C69.2024 65.2199 67.5172 64.5625 65.9142 63.6194L63.8858 67.0669ZM70.0755 69.5182C71.99 70.0208 73.9944 70.2697 75.9917 70.2697V66.2697C74.3223 66.2697 72.66 66.0612 71.0912 65.6493L70.0755 69.5182ZM75.9917 70.2697C77.8556 70.2697 79.4567 70.0337 80.6886 69.4192L78.9031 65.8398C78.4849 66.0484 77.6111 66.2697 75.9917 66.2697V70.2697ZM80.5959 69.4625C82.0766 68.8162 83.0333 67.3069 83.0333 65.709H79.0333C79.0333 65.7105 79.0331 65.718 79.0292 65.7308C79.0252 65.7439 79.0185 65.7588 79.0093 65.7731C79 65.7875 78.9912 65.7965 78.9864 65.8008C78.9817 65.8048 78.984 65.8016 78.9958 65.7965L80.5959 69.4625ZM83.0333 65.709C83.0333 64.2031 82.143 63.0965 81.1927 62.3262L78.6739 65.4336C78.9231 65.6356 79.0187 65.7656 79.0473 65.8128C79.0592 65.8324 79.0541 65.8289 79.0466 65.8037C79.0387 65.777 79.0333 65.7433 79.0333 65.709H83.0333ZM81.1927 62.3262C80.6347 61.8739 79.897 61.4719 79.1086 61.0997C78.2943 60.7152 77.3034 60.3065 76.1633 59.8655L74.7201 63.5961C75.8258 64.0238 76.714 64.3925 77.4007 64.7167C78.1134 65.0533 78.4986 65.2915 78.6739 65.4336L81.1927 62.3262ZM76.1059 59.8443C73.9341 59.0796 71.9345 58.0611 70.0582 56.7848L67.8084 60.0921C69.9655 61.5594 72.2742 62.7358 74.7774 63.6172L76.1059 59.8443ZM70.089 56.8062C68.9144 55.9745 67.9226 54.8734 67.1949 53.5743L63.7051 55.5291C64.7191 57.3394 66.1106 58.8905 67.7776 60.0707L70.089 56.8062ZM67.238 53.6556C66.6465 52.4753 66.359 51.2012 66.395 49.9449L62.3966 49.8303C62.341 51.7749 62.7869 53.7017 63.662 55.4478L67.238 53.6556ZM66.3958 49.8876C66.3958 48.3051 66.8361 46.7815 67.6722 45.3786L64.2361 43.3308C63.0556 45.3117 62.3958 47.5376 62.3958 49.8876H66.3958ZM67.649 45.4165C68.5804 43.9298 69.9732 42.7209 71.6085 41.962L69.9248 38.3337C67.6184 39.4039 65.6196 41.1215 64.2593 43.2929L67.649 45.4165ZM71.6745 41.9299C73.4508 41.025 75.8104 40.5474 78.8792 40.5474V36.5474C75.4396 36.5474 72.3908 37.0758 69.8588 38.3658L71.6745 41.9299ZM78.8792 40.5474C80.663 40.5474 82.4914 40.6778 84.2736 40.938L84.8514 36.9799C82.8753 36.6914 80.8537 36.5474 78.8792 36.5474V40.5474ZM84.2988 40.9415C85.4964 41.1008 86.6615 41.4206 87.7511 41.8635L89.2573 38.1579C87.8718 37.5947 86.3786 37.1829 84.8262 36.9764L84.2988 40.9415ZM88.0202 41.9512C87.6837 41.8673 87.4856 41.7036 87.4085 41.6322C87.319 41.5492 87.24 41.449 87.1745 41.3183L90.7505 39.5261C90.5934 39.2125 90.3768 38.9294 90.1269 38.6978C89.8894 38.4778 89.508 38.1998 88.9882 38.0701L88.0202 41.9512ZM87.0225 40.9083C87.0346 40.9565 87.0424 40.9879 87.0492 41.0168C87.0556 41.0442 87.0586 41.059 87.0599 41.066C87.0612 41.0727 87.0599 41.0669 87.0582 41.0517C87.0565 41.0362 87.0542 41.0085 87.0542 40.9709H91.0542C91.0542 40.4982 90.9366 40.0719 90.9025 39.9361L87.0225 40.9083ZM87.0542 40.9709V48.4244H91.0542V40.9709H87.0542ZM87.0542 48.4244C87.0542 48.1895 87.1108 47.9754 87.2031 47.7912C87.2936 47.6107 87.4524 47.3926 87.7174 47.2163L89.9326 50.5469C90.6947 50.04 91.0542 49.1919 91.0542 48.4244H87.0542ZM88.3921 46.929C88.2425 46.9622 88.2456 46.9502 88.3266 46.9502C88.3763 46.9502 88.4596 46.9545 88.5646 46.9769C88.6732 47 88.7849 47.0381 88.8928 47.0919L87.1072 50.6713C87.9561 51.0948 88.793 50.9373 89.2579 50.8342L88.3921 46.929Z" fill="white" mask="url(#path-1-inside-1_4646_15)"/>
</svg>
