<svg width="107" height="105" viewBox="0 0 107 105" fill="none" xmlns="http://www.w3.org/2000/svg">
<path d="M18.9479 1H88.0521C97.9708 1 106 9.07184 106 19.0705V85.9295C106 95.9282 97.9708 104 88.0521 104H18.9479C9.02919 104 1 95.9282 1 85.9295V19.0705C1 9.07184 9.02919 1 18.9479 1Z" fill="#330000" stroke="white" stroke-width="2"/>
<path d="M52.7966 62.6761L52.5651 62H51.8505H35.2655H34.5364L34.3134 62.694L30.9463 73.173H23.2822L37.4591 32.0954L37.4661 32.0753L37.4721 32.0549C37.5154 31.9098 37.5567 31.7672 37.598 31.6245C37.6933 31.2954 37.7888 30.9656 37.9089 30.6028L37.9298 30.5397L37.9422 30.4744C38.102 29.63 38.1942 28.7556 38.2198 27.8782H48.876L64.8239 73.173H56.3899L52.7966 62.6761ZM22.6335 73.1725C22.6335 73.1725 22.6345 73.1726 22.6365 73.1728L22.6335 73.1725ZM65.5508 73.1726C65.5513 73.1726 65.5503 73.1727 65.5474 73.1729L65.5508 73.1726ZM49.1551 27.8792C49.155 27.8793 49.1535 27.8792 49.1505 27.8787C49.1537 27.879 49.1551 27.8792 49.1551 27.8792ZM36.9089 53.5566L36.4354 54.891H37.8513H49.1755H50.4989L50.1375 53.6179C49.8642 52.6553 49.5024 51.5177 49.0976 50.3405C48.7013 49.1436 48.3038 47.8547 47.9046 46.5156L47.9017 46.5058L47.8986 46.496C47.6775 45.8061 47.4671 45.1265 47.2552 44.4415L47.2543 44.4388C47.043 43.7561 46.8301 43.068 46.6057 42.3678C46.1617 40.9825 45.7653 39.6965 45.4141 38.4151L45.4141 38.4151L45.4116 38.4064C45.2584 37.8667 45.11 37.3309 44.9654 36.8089C44.7812 36.1438 44.6032 35.5011 44.4293 34.9011L44.2202 34.1795H43.4688H43.3796H42.5662L42.4006 34.9759C42.0053 36.8765 41.5236 38.7705 40.9124 40.6601L40.9123 40.6601L40.9088 40.6714C40.6512 41.5011 40.3954 42.3381 40.1378 43.1807C39.7214 44.5432 39.3005 45.9205 38.86 47.3059L38.8537 47.3258L38.8482 47.3458C38.2307 49.61 37.5694 51.6952 36.9089 53.5566Z" fill="#FF9A00" stroke="white" stroke-width="2"/>
<path d="M75.7617 33.553L75.717 33.5504L75.6721 33.5517C74.4967 33.5876 73.3369 33.1256 72.4517 32.2828C71.6202 31.3609 71.1816 30.1445 71.2185 28.8818L71.2193 28.8526L71.2185 28.8233C71.1819 27.5725 71.6556 26.4106 72.5181 25.5787C73.3905 24.7373 74.5635 24.2885 75.7918 24.2885C77.301 24.2885 78.3567 24.7446 79.1167 25.5402C79.9179 26.424 80.3573 27.6042 80.3206 28.8225L80.3197 28.8521L80.3206 28.8818C80.3577 30.1531 79.9131 31.3711 79.0361 32.2906L79.0355 32.2912C78.2197 33.148 76.9935 33.6259 75.7617 33.553ZM79.696 73.2179H71.7093V39.3205H79.696V73.2179ZM71.7116 38.9029C71.7118 38.9031 71.7115 38.9063 71.7105 38.9121C71.711 38.9057 71.7115 38.9028 71.7116 38.9029ZM71.275 39.3208C71.273 39.321 71.272 39.321 71.272 39.321L71.275 39.3208ZM79.695 38.9257C79.695 38.9256 79.6953 38.9274 79.6955 38.9311C79.695 38.9276 79.6949 38.9258 79.695 38.9257ZM71.7104 73.525C71.7104 73.525 71.7103 73.5242 71.7101 73.5225L71.7104 73.525Z" fill="#FF9A00" stroke="white" stroke-width="2"/>
</svg>
