<svg width="20" height="20" viewBox="0 0 20 20" fill="none" xmlns="http://www.w3.org/2000/svg">
<path d="M1 7.02001V7.91001C1 9.29001 2.12 10.41 3.5 10.41H16.31C17.69 10.41 18.81 9.29001 18.81 7.91001V7.02001M7.22 3.35V2.75C7.22 1.65 8.12 0.75 9.22 0.75H10.58C11.68 0.75 12.58 1.65 12.58 2.75V3.35M5.98 8.71002V11.73M13.83 8.71002V11.73M16.31 18.5696H3.5C2.12 18.5696 1 17.4496 1 16.0696V5.84961C1 4.46961 2.12 3.34961 3.5 3.34961H16.31C17.69 3.34961 18.81 4.46961 18.81 5.84961V16.0696C18.81 17.4596 17.69 18.5696 16.31 18.5696Z" stroke="#FE7A00" stroke-width="1.2" stroke-miterlimit="10" stroke-linecap="round" stroke-linejoin="round"/>
</svg>
